<?xml version="1.0" encoding="utf-8" ?>
<!DOCTYPE svg PUBLIC "-//W3C//DTD SVG 1.1//EN" "http://www.w3.org/Graphics/SVG/1.1/DTD/svg11.dtd">
<svg height="764" version="1.1" width="1396" xmlns="http://www.w3.org/2000/svg">
<rect fill="#ffffff" height="256" stroke="#ffffff" stroke-width="1" width="202" x="442" y="158"/>
<rect fill="none" height="256" stroke="#000000" stroke-width="1" width="202" x="442" y="158"/>
<text font-family="Lucida Grande" font-size="13" x="529" y="172">
User</text>
<rect fill="#000000" height="1" stroke="#000000" stroke-width="1" width="202" x="442" y="182"/>
<text font-family="Lucida Grande" font-size="13" x="446" y="197">
name : String</text>
<text font-family="Lucida Grande" font-size="13" x="446" y="214">
email : String</text>
<text font-family="Lucida Grande" font-size="13" x="446" y="231">
password : String</text>
<text font-family="Lucida Grande" font-size="13" x="446" y="248">
dob : Date</text>
<text font-family="Lucida Grande" font-size="13" x="446" y="265">
phoneNumber : Integer</text>
<rect fill="#000000" height="1" stroke="#000000" stroke-width="1" width="202" x="442" y="333"/>
<rect fill="#ffffff" height="70" stroke="#ffffff" stroke-width="1" width="104" x="218" y="14"/>
<rect fill="none" height="70" stroke="#000000" stroke-width="1" width="104" x="218" y="14"/>
<text font-family="Lucida Grande" font-size="13" x="255" y="48">
Date</text>
<text font-family="Lucida Grande" font-size="13" x="223" y="29">
&lt;&lt;datatype&gt;&gt;</text>
<rect fill="#000000" height="1" stroke="#000000" stroke-width="1" width="104" x="218" y="58"/>
<rect fill="#ffffff" height="94" stroke="#ffffff" stroke-width="1" width="147" x="786" y="22"/>
<rect fill="none" height="94" stroke="#000000" stroke-width="1" width="147" x="786" y="22"/>
<text font-family="Lucida Grande" font-size="13" x="832" y="36">
Message</text>
<rect fill="#000000" height="1" stroke="#000000" stroke-width="1" width="147" x="786" y="46"/>
<text font-family="Lucida Grande" font-size="13" x="790" y="61">
messageText : String</text>
<text font-family="Lucida Grande" font-size="13" x="790" y="78">
timestamp : Date</text>
<rect fill="#000000" height="1" stroke="#000000" stroke-width="1" width="147" x="786" y="91"/>
<rect fill="#ffffff" height="94" stroke="#ffffff" stroke-width="1" width="131" x="666" y="422"/>
<rect fill="none" height="94" stroke="#000000" stroke-width="1" width="131" x="666" y="422"/>
<text font-family="Lucida Grande" font-size="13" x="718" y="436">
Post</text>
<rect fill="#000000" height="1" stroke="#000000" stroke-width="1" width="131" x="666" y="446"/>
<text font-family="Lucida Grande" font-size="13" x="670" y="461">
postText : String</text>
<text font-family="Lucida Grande" font-size="13" x="670" y="478">
timestamp : Date</text>
<rect fill="#000000" height="1" stroke="#000000" stroke-width="1" width="131" x="666" y="491"/>
<rect fill="#ffffff" height="72" stroke="#ffffff" stroke-width="1" width="112" x="602" y="566"/>
<rect fill="none" height="72" stroke="#000000" stroke-width="1" width="112" x="602" y="566"/>
<text font-family="Lucida Grande" font-size="13" x="616" y="580">
StatusUpdate</text>
<rect fill="#000000" height="1" stroke="#000000" stroke-width="1" width="112" x="602" y="590"/>
<rect fill="#000000" height="1" stroke="#000000" stroke-width="1" width="112" x="602" y="613"/>
<polyline fill="none" points="690,566 690,515" stroke="#000000" stroke-width="1"/>
<polygon fill="#ffffff" points="690,515 697,527 683,527" stroke="#ffffff" stroke-width="1"/>
<polygon fill="none" points="690,515 697,527 683,527" stroke="#000000" stroke-width="1"/>
<text font-family="Lucida Grande" font-size="13" x="693" y="547">
STATUS</text>
<rect fill="#ffffff" height="71" stroke="#ffffff" stroke-width="1" width="112" x="730" y="566"/>
<rect fill="none" height="71" stroke="#000000" stroke-width="1" width="112" x="730" y="566"/>
<text font-family="Lucida Grande" font-size="13" x="759" y="580">
WallPost</text>
<rect fill="#000000" height="1" stroke="#000000" stroke-width="1" width="112" x="730" y="590"/>
<rect fill="#000000" height="1" stroke="#000000" stroke-width="1" width="112" x="730" y="613"/>
<polyline fill="none" points="778,566 778,515" stroke="#000000" stroke-width="1"/>
<polygon fill="#ffffff" points="778,515 785,527 771,527" stroke="#ffffff" stroke-width="1"/>
<polygon fill="none" points="778,515 785,527 771,527" stroke="#000000" stroke-width="1"/>
<text font-family="Lucida Grande" font-size="13" x="781" y="547">
WALL_POST</text>
<rect fill="#ffffff" height="94" stroke="#ffffff" stroke-width="1" width="272" x="962" y="358"/>
<rect fill="none" height="94" stroke="#000000" stroke-width="1" width="272" x="962" y="358"/>
<text font-family="Lucida Grande" font-size="13" x="1067" y="372">
Comment</text>
<rect fill="#000000" height="1" stroke="#000000" stroke-width="1" width="272" x="962" y="382"/>
<text font-family="Lucida Grande" font-size="13" x="966" y="397">
commentText : String</text>
<text font-family="Lucida Grande" font-size="13" x="966" y="414">
timestamp : Date</text>
<rect fill="#000000" height="1" stroke="#000000" stroke-width="1" width="272" x="962" y="427"/>
<polyline fill="none" points="796,470 922,470 922,590" stroke="#000000" stroke-width="1"/>
<polygon fill="#000000" points="796,470 806,465 816,470 806,475" stroke="#000000" stroke-width="1"/>
<polygon fill="none" points="796,470 806,465 816,470 806,475" stroke="#000000" stroke-width="1"/>
<text font-family="Lucida Grande" font-size="13" x="928" y="573">
0..*</text>
<rect fill="#ffffff" height="69" stroke="#ffffff" stroke-width="1" width="114" x="898" y="590"/>
<rect fill="none" height="69" stroke="#000000" stroke-width="1" width="114" x="898" y="590"/>
<text font-family="Lucida Grande" font-size="13" x="911" y="604">
PostComment</text>
<rect fill="#000000" height="1" stroke="#000000" stroke-width="1" width="114" x="898" y="614"/>
<rect fill="#000000" height="1" stroke="#000000" stroke-width="1" width="114" x="898" y="636"/>
<rect fill="#ffffff" height="69" stroke="#ffffff" stroke-width="1" width="128" x="1186" y="590"/>
<rect fill="none" height="69" stroke="#000000" stroke-width="1" width="128" x="1186" y="590"/>
<text font-family="Lucida Grande" font-size="13" x="1202" y="604">
EventComment</text>
<rect fill="#000000" height="1" stroke="#000000" stroke-width="1" width="128" x="1186" y="614"/>
<rect fill="#000000" height="1" stroke="#000000" stroke-width="1" width="128" x="1186" y="636"/>
<polyline fill="none" points="1210,590 1210,451" stroke="#000000" stroke-width="1"/>
<polygon fill="#ffffff" points="1210,451 1217,463 1203,463" stroke="#ffffff" stroke-width="1"/>
<polygon fill="none" points="1210,451 1217,463 1203,463" stroke="#000000" stroke-width="1"/>
<text font-family="Lucida Grande" font-size="13" x="1212" y="524">
EVENT</text>
<polyline fill="none" points="978,590 978,451" stroke="#000000" stroke-width="1"/>
<polygon fill="#ffffff" points="978,451 985,463 971,463" stroke="#ffffff" stroke-width="1"/>
<polygon fill="none" points="978,451 985,463 971,463" stroke="#000000" stroke-width="1"/>
<text font-family="Lucida Grande" font-size="13" x="981" y="525">
POST</text>
<rect fill="#ffffff" height="70" stroke="#ffffff" stroke-width="1" width="104" x="82" y="14"/>
<rect fill="none" height="70" stroke="#000000" stroke-width="1" width="104" x="82" y="14"/>
<text font-family="Lucida Grande" font-size="13" x="116" y="48">
Photo</text>
<text font-family="Lucida Grande" font-size="13" x="87" y="29">
&lt;&lt;datatype&gt;&gt;</text>
<rect fill="#000000" height="1" stroke="#000000" stroke-width="1" width="104" x="82" y="58"/>
<rect fill="#ffffff" height="69" stroke="#ffffff" stroke-width="1" width="107" x="1050" y="590"/>
<rect fill="none" height="69" stroke="#000000" stroke-width="1" width="107" x="1050" y="590"/>
<text font-family="Lucida Grande" font-size="13" x="1055" y="604">
PhotoComment</text>
<rect fill="#000000" height="1" stroke="#000000" stroke-width="1" width="107" x="1050" y="614"/>
<rect fill="#000000" height="1" stroke="#000000" stroke-width="1" width="107" x="1050" y="636"/>
<polyline fill="none" points="1106,590 1106,451" stroke="#000000" stroke-width="1"/>
<polygon fill="#ffffff" points="1106,451 1113,463 1099,463" stroke="#ffffff" stroke-width="1"/>
<polygon fill="none" points="1106,451 1113,463 1099,463" stroke="#000000" stroke-width="1"/>
<text font-family="Lucida Grande" font-size="13" x="1109" y="526">
PHOTO</text>
<rect fill="#ffffff" height="152" stroke="#ffffff" stroke-width="1" width="128" x="26" y="286"/>
<rect fill="none" height="152" stroke="#000000" stroke-width="1" width="128" x="26" y="286"/>
<text font-family="Lucida Grande" font-size="13" x="54" y="300">
Photograph</text>
<rect fill="#000000" height="1" stroke="#000000" stroke-width="1" width="128" x="26" y="310"/>
<text font-family="Lucida Grande" font-size="13" x="30" y="325">
pic : Photo</text>
<text font-family="Lucida Grande" font-size="13" x="30" y="342">
description : String</text>
<rect fill="#000000" height="1" stroke="#000000" stroke-width="1" width="128" x="26" y="384"/>
<polyline fill="none" points="50,437 50,750 1106,750 1106,658" stroke="#000000" stroke-width="1"/>
<polygon fill="#000000" points="50,437 55,447 50,457 45,447" stroke="#000000" stroke-width="1"/>
<polygon fill="none" points="50,437 55,447 50,457 45,447" stroke="#000000" stroke-width="1"/>
<text font-family="Lucida Grande" font-size="13" x="1118" y="685">
0..*</text>
<rect fill="#ffffff" height="132" stroke="#ffffff" stroke-width="1" width="135" x="1194" y="70"/>
<rect fill="none" height="132" stroke="#000000" stroke-width="1" width="135" x="1194" y="70"/>
<text font-family="Lucida Grande" font-size="13" x="1244" y="84">
Event</text>
<rect fill="#000000" height="1" stroke="#000000" stroke-width="1" width="135" x="1194" y="94"/>
<text font-family="Lucida Grande" font-size="13" x="1198" y="109">
title : String</text>
<text font-family="Lucida Grande" font-size="13" x="1198" y="126">
description : String</text>
<text font-family="Lucida Grande" font-size="13" x="1198" y="143">
when : Date</text>
<text font-family="Lucida Grande" font-size="13" x="1198" y="160">
where : String</text>
<rect fill="#000000" height="1" stroke="#000000" stroke-width="1" width="135" x="1194" y="175"/>
<polyline fill="none" points="1290,201 1290,494 1290,590" stroke="#000000" stroke-width="1"/>
<polygon fill="#000000" points="1290,201 1295,211 1290,221 1285,211" stroke="#000000" stroke-width="1"/>
<polygon fill="none" points="1290,201 1295,211 1290,221 1285,211" stroke="#000000" stroke-width="1"/>
<text font-family="Lucida Grande" font-size="13" x="1296" y="573">
0..*</text>
<polyline fill="none" points="634,158 634,62 786,62" stroke="#000000" stroke-width="1"/>
<line fill="#000000" stroke="#000000" stroke-width="1" x1="774" x2="786" y1="69" y2="62"/>
<line fill="#000000" stroke="#000000" stroke-width="1" x1="774" x2="786" y1="55" y2="62"/>
<text font-family="Lucida Grande" font-size="13" x="618" y="42">
Sends</text>
<text font-family="Lucida Grande" font-size="13" x="613" y="141">
1</text>
<text font-family="Lucida Grande" font-size="13" x="753" y="50">
0..*</text>
<polyline fill="none" points="834,115 834,214 643,214" stroke="#000000" stroke-width="1"/>
<line fill="#000000" stroke="#000000" stroke-width="1" x1="655" x2="643" y1="207" y2="214"/>
<line fill="#000000" stroke="#000000" stroke-width="1" x1="655" x2="643" y1="221" y2="214"/>
<text font-family="Lucida Grande" font-size="13" x="744" y="194">
ReceivedBy</text>
<text font-family="Lucida Grande" font-size="13" x="840" y="142">
0..*</text>
<text font-family="Lucida Grande" font-size="13" x="660" y="200">
1</text>
<polyline fill="none" points="643,238 898,238 898,134 1194,134" stroke="#000000" stroke-width="1"/>
<line fill="#000000" stroke="#000000" stroke-width="1" x1="1182" x2="1194" y1="141" y2="134"/>
<line fill="#000000" stroke="#000000" stroke-width="1" x1="1182" x2="1194" y1="127" y2="134"/>
<text font-family="Lucida Grande" font-size="13" x="901" y="165">
Creates</text>
<text font-family="Lucida Grande" font-size="13" x="667" y="232">
1</text>
<text font-family="Lucida Grande" font-size="13" x="1161" y="125">
0..*</text>
<polyline fill="none" points="1218,201 1218,262 643,262" stroke="#000000" stroke-width="1"/>
<line fill="#000000" stroke="#000000" stroke-width="1" x1="655" x2="643" y1="255" y2="262"/>
<line fill="#000000" stroke="#000000" stroke-width="1" x1="655" x2="643" y1="269" y2="262"/>
<text font-family="Lucida Grande" font-size="13" x="920" y="253">
Attends</text>
<text font-family="Lucida Grande" font-size="13" x="1224" y="228">
0..*</text>
<text font-family="Lucida Grande" font-size="13" x="663" y="256">
0..*</text>
<polyline fill="none" points="538,413 538,678 754,678 754,636" stroke="#000000" stroke-width="1"/>
<line fill="#000000" stroke="#000000" stroke-width="1" x1="761" x2="754" y1="648" y2="636"/>
<line fill="#000000" stroke="#000000" stroke-width="1" x1="747" x2="754" y1="648" y2="636"/>
<text font-family="Lucida Grande" font-size="13" x="546" y="663">
Posts</text>
<text font-family="Lucida Grande" font-size="13" x="551" y="447">
1</text>
<text font-family="Lucida Grande" font-size="13" x="760" y="659">
0..*</text>
<polyline fill="none" points="794,636 794,718 514,718 514,413" stroke="#000000" stroke-width="1"/>
<line fill="#000000" stroke="#000000" stroke-width="1" x1="521" x2="514" y1="425" y2="413"/>
<line fill="#000000" stroke="#000000" stroke-width="1" x1="507" x2="514" y1="425" y2="413"/>
<text font-family="Lucida Grande" font-size="13" x="524" y="709">
ReceivesPost</text>
<text font-family="Lucida Grande" font-size="13" x="811" y="662">
1</text>
<text font-family="Lucida Grande" font-size="13" x="527" y="447">
1</text>
<polyline fill="none" points="754,422 754,374 643,374" stroke="#000000" stroke-width="1"/>
<line fill="#000000" stroke="#000000" stroke-width="1" x1="655" x2="643" y1="367" y2="374"/>
<line fill="#000000" stroke="#000000" stroke-width="1" x1="655" x2="643" y1="381" y2="374"/>
<text font-family="Lucida Grande" font-size="13" x="731" y="369">
Liked</text>
<text font-family="Lucida Grande" font-size="13" x="732" y="412">
1</text>
<text font-family="Lucida Grande" font-size="13" x="663" y="368">
0..*</text>
<polyline fill="none" points="1186,358 1186,286 643,286" stroke="#000000" stroke-width="1"/>
<line fill="#000000" stroke="#000000" stroke-width="1" x1="655" x2="643" y1="279" y2="286"/>
<line fill="#000000" stroke="#000000" stroke-width="1" x1="655" x2="643" y1="293" y2="286"/>
<text font-family="Lucida Grande" font-size="13" x="909" y="280">
Liked</text>
<text font-family="Lucida Grande" font-size="13" x="1205" y="343">
1</text>
<text font-family="Lucida Grande" font-size="13" x="664" y="279">
0..*</text>
<polyline fill="none" points="643,318 1130,318 1130,358" stroke="#000000" stroke-width="1"/>
<text font-family="Lucida Grande" font-size="13" x="868" y="313">
PostsComments</text>
<text font-family="Lucida Grande" font-size="13" x="669" y="313">
1</text>
<text font-family="Lucida Grande" font-size="13" x="1136" y="341">
0..*</text>
<polyline fill="none" points="570,413 570,606 602,606" stroke="#000000" stroke-width="1"/>
<line fill="#000000" stroke="#000000" stroke-width="1" x1="590" x2="602" y1="613" y2="606"/>
<line fill="#000000" stroke="#000000" stroke-width="1" x1="590" x2="602" y1="599" y2="606"/>
<text font-family="Lucida Grande" font-size="13" x="573" y="530">
PostsStatus</text>
<text font-family="Lucida Grande" font-size="13" x="583" y="449">
1</text>
<text font-family="Lucida Grande" font-size="13" x="576" y="596">
0..*</text>
<rect fill="#ffffff" height="94" stroke="#ffffff" stroke-width="1" width="128" x="34" y="102"/>
<rect fill="none" height="94" stroke="#000000" stroke-width="1" width="128" x="34" y="102"/>
<text font-family="Lucida Grande" font-size="13" x="77" y="116">
Album</text>
<rect fill="#000000" height="1" stroke="#000000" stroke-width="1" width="128" x="34" y="126"/>
<text font-family="Lucida Grande" font-size="13" x="38" y="141">
name : String</text>
<text font-family="Lucida Grande" font-size="13" x="38" y="158">
description : String</text>
<rect fill="#000000" height="1" stroke="#000000" stroke-width="1" width="128" x="34" y="171"/>
<polyline fill="none" points="442,294 153,294" stroke="#000000" stroke-width="1"/>
<line fill="#000000" stroke="#000000" stroke-width="1" x1="165" x2="153" y1="287" y2="294"/>
<line fill="#000000" stroke="#000000" stroke-width="1" x1="165" x2="153" y1="301" y2="294"/>
<text font-family="Lucida Grande" font-size="13" x="253" y="284">
CoverPic</text>
<text font-family="Lucida Grande" font-size="13" x="423" y="289">
1</text>
<text font-family="Lucida Grande" font-size="13" x="164" y="289">
1</text>
<polyline fill="none" points="442,326 153,326" stroke="#000000" stroke-width="1"/>
<line fill="#000000" stroke="#000000" stroke-width="1" x1="165" x2="153" y1="319" y2="326"/>
<line fill="#000000" stroke="#000000" stroke-width="1" x1="165" x2="153" y1="333" y2="326"/>
<text font-family="Lucida Grande" font-size="13" x="251" y="316">
ProfilePic</text>
<text font-family="Lucida Grande" font-size="13" x="423" y="321">
1</text>
<text font-family="Lucida Grande" font-size="13" x="164" y="321">
1</text>
<polyline fill="none" points="82,195 82,286" stroke="#000000" stroke-width="1"/>
<polygon fill="#000000" points="82,195 87,205 82,215 77,205" stroke="#000000" stroke-width="1"/>
<polygon fill="none" points="82,195 87,205 82,215 77,205" stroke="#000000" stroke-width="1"/>
<line fill="#000000" stroke="#000000" stroke-width="1" x1="75" x2="82" y1="274" y2="286"/>
<line fill="#000000" stroke="#000000" stroke-width="1" x1="89" x2="82" y1="274" y2="286"/>
<text font-family="Lucida Grande" font-size="13" x="85" y="245">
ConsistsOf</text>
<text font-family="Lucida Grande" font-size="13" x="95" y="222">
1</text>
<text font-family="Lucida Grande" font-size="13" x="88" y="269">
0..*</text>
<polyline fill="none" points="442,222 338,222 338,158 161,158" stroke="#000000" stroke-width="1"/>
<polygon fill="#000000" points="442,222 432,227 422,222 432,217" stroke="#000000" stroke-width="1"/>
<polygon fill="none" points="442,222 432,227 422,222 432,217" stroke="#000000" stroke-width="1"/>
<line fill="#000000" stroke="#000000" stroke-width="1" x1="173" x2="161" y1="151" y2="158"/>
<line fill="#000000" stroke="#000000" stroke-width="1" x1="173" x2="161" y1="165" y2="158"/>
<text font-family="Lucida Grande" font-size="13" x="303" y="143">
Creates</text>
<text font-family="Lucida Grande" font-size="13" x="423" y="217">
1</text>
<text font-family="Lucida Grande" font-size="13" x="178" y="145">
0..*</text>
<polyline fill="none" points="442,406 370,406 370,494 466,494 466,413" stroke="#000000" stroke-width="1"/>
<text font-family="Lucida Grande" font-size="13" x="373" y="474">
FriendsWith</text>
<text font-family="Lucida Grande" font-size="13" x="416" y="401">
0..*</text>
<text font-family="Lucida Grande" font-size="13" x="438" y="440">
0..*</text>
<rect fill="#ffffff" height="128" stroke="#ffffff" stroke-width="1" width="220" x="218" y="566"/>
<rect fill="none" height="128" stroke="#000000" stroke-width="1" width="220" x="218" y="566"/>
<text font-family="Lucida Grande" font-size="13" x="291" y="580">
FriendsWith</text>
<rect fill="#000000" height="1" stroke="#000000" stroke-width="1" width="220" x="218" y="590"/>
<text font-family="Lucida Grande" font-size="13" x="222" y="605">
requestStatus : REQUEST_STATUS</text>
<text font-family="Lucida Grande" font-size="13" x="222" y="622">
blockedStatus : Boolean</text>
<rect fill="#000000" height="1" stroke="#000000" stroke-width="1" width="220" x="218" y="652"/>
<line fill="#000000" stroke="#000000" stroke-width="1" x1="418" x2="418" y1="566" y2="494"/>
<rect fill="#ffffff" height="70" stroke="#ffffff" stroke-width="1" width="131" x="354" y="14"/>
<rect fill="none" height="70" stroke="#000000" stroke-width="1" width="131" x="354" y="14"/>
<text font-family="Lucida Grande" font-size="13" x="364" y="48">
REQUEST_STATUS</text>
<text font-family="Lucida Grande" font-size="13" x="372" y="29">
&lt;&lt;datatype&gt;&gt;</text>
<rect fill="#000000" height="1" stroke="#000000" stroke-width="1" width="131" x="354" y="58"/>
<polyline fill="none" points="153,366 442,366" stroke="#000000" stroke-width="1"/>
<line fill="#000000" stroke="#000000" stroke-width="1" x1="430" x2="442" y1="373" y2="366"/>
<line fill="#000000" stroke="#000000" stroke-width="1" x1="430" x2="442" y1="359" y2="366"/>
<text font-family="Lucida Grande" font-size="13" x="250" y="356">
Liked</text>
<text font-family="Lucida Grande" font-size="13" x="164" y="361">
1</text>
<text font-family="Lucida Grande" font-size="13" x="416" y="361">
0..*</text>
<polyline fill="none" points="932,78 1018,78 1018,38 932,38" stroke="#000000" stroke-width="1"/>
<line fill="#000000" stroke="#000000" stroke-width="1" x1="944" x2="932" y1="31" y2="38"/>
<line fill="#000000" stroke="#000000" stroke-width="1" x1="944" x2="932" y1="45" y2="38"/>
<text font-family="Lucida Grande" font-size="13" x="946" y="94">
in-reply-to</text>
<text font-family="Lucida Grande" font-size="13" x="943" y="73">
1</text>
<text font-family="Lucida Grande" font-size="13" x="943" y="33">
1</text>
</svg>
