<?xml version="1.0" encoding="utf-8" ?>
<!DOCTYPE svg PUBLIC "-//W3C//DTD SVG 1.1//EN" "http://www.w3.org/Graphics/SVG/1.1/DTD/svg11.dtd">
<svg height="765" version="1.1" width="826" xmlns="http://www.w3.org/2000/svg">
<rect fill="#ffffff" height="271" stroke="#ffffff" stroke-width="1" width="225" x="318" y="254"/>
<rect fill="none" height="271" stroke="#000000" stroke-width="1" width="225" x="318" y="254"/>
<text font-family="Dialog" font-size="13" x="415" y="268">
User</text>
<rect fill="#000000" height="1" stroke="#000000" stroke-width="1" width="225" x="318" y="279"/>
<text font-family="Dialog" font-size="13" x="322" y="294">
firstName : String</text>
<text font-family="Dialog" font-size="13" x="322" y="312">
email : String</text>
<text font-family="Dialog" font-size="13" x="322" y="330">
password : String</text>
<text font-family="Dialog" font-size="13" x="322" y="348">
dob : Date</text>
<text font-family="Dialog" font-size="13" x="322" y="366">
phoneNumber : Integer</text>
<text font-family="Dialog" font-size="13" x="322" y="384">
lastName : String</text>
<text font-family="Dialog" font-size="13" x="322" y="402">
place : String</text>
<text font-family="Dialog" font-size="13" x="322" y="420">
currentProfilePic : Photo</text>
<text font-family="Dialog" font-size="13" x="322" y="438">
currentCoverPic : Photo</text>
<text font-family="Dialog" font-size="13" x="322" y="456">
secretQuestion : String</text>
<text font-family="Dialog" font-size="13" x="322" y="474">
secretAnswer : String</text>
<text font-family="Dialog" font-size="13" x="322" y="492">
created : TimeStamp</text>
<rect fill="#000000" height="1" stroke="#000000" stroke-width="1" width="225" x="318" y="503"/>
<rect fill="#ffffff" height="127" stroke="#ffffff" stroke-width="1" width="150" x="662" y="414"/>
<rect fill="none" height="127" stroke="#000000" stroke-width="1" width="150" x="662" y="414"/>
<text font-family="Dialog" font-size="13" x="705" y="428">
Comment</text>
<rect fill="#000000" height="1" stroke="#000000" stroke-width="1" width="150" x="662" y="439"/>
<text font-family="Dialog" font-size="13" x="666" y="454">
text : String</text>
<text font-family="Dialog" font-size="13" x="666" y="472">
created : TimeStamp</text>
<text font-family="Dialog" font-size="13" x="666" y="490">
updated : TimeStamp</text>
<text font-family="Dialog" font-size="13" x="666" y="508">
like_count : Integer</text>
<rect fill="#000000" height="1" stroke="#000000" stroke-width="1" width="150" x="662" y="519"/>
<rect fill="#ffffff" height="68" stroke="#ffffff" stroke-width="1" width="110" x="246" y="14"/>
<rect fill="none" height="68" stroke="#000000" stroke-width="1" width="110" x="246" y="14"/>
<text font-family="Dialog" font-size="13" x="282" y="49">
Photo</text>
<text font-family="Dialog" font-size="13" x="250" y="29">
&lt;&lt;datatype&gt;&gt;</text>
<rect fill="#000000" height="1" stroke="#000000" stroke-width="1" width="110" x="246" y="60"/>
<rect fill="#ffffff" height="127" stroke="#ffffff" stroke-width="1" width="132" x="662" y="134"/>
<rect fill="none" height="127" stroke="#000000" stroke-width="1" width="132" x="662" y="134"/>
<text font-family="Dialog" font-size="13" x="710" y="148">
Event</text>
<rect fill="#000000" height="1" stroke="#000000" stroke-width="1" width="132" x="662" y="159"/>
<text font-family="Dialog" font-size="13" x="666" y="174">
title : String</text>
<text font-family="Dialog" font-size="13" x="666" y="192">
description : String</text>
<text font-family="Dialog" font-size="13" x="666" y="210">
time : TimeStamp</text>
<text font-family="Dialog" font-size="13" x="666" y="228">
place : String</text>
<rect fill="#000000" height="1" stroke="#000000" stroke-width="1" width="132" x="662" y="239"/>
<polyline fill="none" points="542,254 662,254" stroke="#000000" stroke-width="1"/>
<line fill="#000000" stroke="#000000" stroke-width="1" x1="650" x2="662" y1="261" y2="254"/>
<line fill="#000000" stroke="#000000" stroke-width="1" x1="650" x2="662" y1="247" y2="254"/>
<text font-family="Dialog" font-size="13" x="551" y="247">
Creates</text>
<text font-family="Dialog" font-size="13" x="561" y="270">
1</text>
<text font-family="Dialog" font-size="13" x="616" y="269">
0..*</text>
<polyline fill="none" points="505,662 550,662 550,510 542,510" stroke="#000000" stroke-width="1"/>
<line fill="#000000" stroke="#000000" stroke-width="1" x1="554" x2="542" y1="503" y2="510"/>
<line fill="#000000" stroke="#000000" stroke-width="1" x1="554" x2="542" y1="517" y2="510"/>
<text font-family="Dialog" font-size="13" x="552" y="617">
Liked</text>
<text font-family="Dialog" font-size="13" x="515" y="656">
0..*</text>
<text font-family="Dialog" font-size="13" x="521" y="542">
0..*</text>
<polyline fill="none" points="662,422 542,422" stroke="#000000" stroke-width="1"/>
<line fill="#000000" stroke="#000000" stroke-width="1" x1="554" x2="542" y1="415" y2="422"/>
<line fill="#000000" stroke="#000000" stroke-width="1" x1="554" x2="542" y1="429" y2="422"/>
<text font-family="Dialog" font-size="13" x="589" y="412">
Liked</text>
<text font-family="Dialog" font-size="13" x="634" y="416">
0..*</text>
<text font-family="Dialog" font-size="13" x="555" y="416">
0..*</text>
<polyline fill="none" points="542,486 662,486" stroke="#000000" stroke-width="1"/>
<text font-family="Dialog" font-size="13" x="561" y="480">
Comments</text>
<text font-family="Dialog" font-size="13" x="553" y="479">
1</text>
<text font-family="Dialog" font-size="13" x="633" y="479">
0..*</text>
<rect fill="#ffffff" height="68" stroke="#ffffff" stroke-width="1" width="129" x="382" y="14"/>
<rect fill="none" height="68" stroke="#000000" stroke-width="1" width="129" x="382" y="14"/>
<text font-family="Dialog" font-size="13" x="387" y="49">
REQUEST_STATUS</text>
<text font-family="Dialog" font-size="13" x="396" y="29">
&lt;&lt;datatype&gt;&gt;</text>
<rect fill="#000000" height="1" stroke="#000000" stroke-width="1" width="129" x="382" y="60"/>
<rect fill="#ffffff" height="68" stroke="#ffffff" stroke-width="1" width="169" x="46" y="14"/>
<rect fill="none" height="68" stroke="#000000" stroke-width="1" width="169" x="46" y="14"/>
<text font-family="Dialog" font-size="13" x="53" y="49">
CONFIRMATION_STATUS</text>
<text font-family="Dialog" font-size="13" x="80" y="29">
&lt;&lt;datatype&gt;&gt;</text>
<rect fill="#000000" height="1" stroke="#000000" stroke-width="1" width="169" x="46" y="60"/>
<rect fill="#ffffff" height="127" stroke="#ffffff" stroke-width="1" width="121" x="30" y="358"/>
<rect fill="none" height="127" stroke="#000000" stroke-width="1" width="121" x="30" y="358"/>
<text font-family="Dialog" font-size="13" x="50" y="372">
Organization</text>
<rect fill="#000000" height="1" stroke="#000000" stroke-width="1" width="121" x="30" y="383"/>
<text font-family="Dialog" font-size="13" x="34" y="398">
name : String</text>
<text font-family="Dialog" font-size="13" x="34" y="416">
from : Date</text>
<text font-family="Dialog" font-size="13" x="34" y="434">
to : Date</text>
<text font-family="Dialog" font-size="13" x="34" y="452">
position : String</text>
<rect fill="#000000" height="1" stroke="#000000" stroke-width="1" width="121" x="30" y="463"/>
<polyline fill="none" points="318,414 150,414" stroke="#000000" stroke-width="1"/>
<line fill="#000000" stroke="#000000" stroke-width="1" x1="162" x2="150" y1="407" y2="414"/>
<line fill="#000000" stroke="#000000" stroke-width="1" x1="162" x2="150" y1="421" y2="414"/>
<text font-family="Dialog" font-size="13" x="198" y="430">
worksFor</text>
<text font-family="Dialog" font-size="13" x="306" y="408">
1</text>
<text font-family="Dialog" font-size="13" x="167" y="408">
0..*</text>
<rect fill="#ffffff" height="145" stroke="#ffffff" stroke-width="1" width="165" x="22" y="494"/>
<rect fill="none" height="145" stroke="#000000" stroke-width="1" width="165" x="22" y="494"/>
<text font-family="Dialog" font-size="13" x="78" y="508">
Institute</text>
<rect fill="#000000" height="1" stroke="#000000" stroke-width="1" width="165" x="22" y="519"/>
<text font-family="Dialog" font-size="13" x="26" y="534">
name : String</text>
<text font-family="Dialog" font-size="13" x="26" y="552">
from : Date</text>
<text font-family="Dialog" font-size="13" x="26" y="570">
to : Date</text>
<text font-family="Dialog" font-size="13" x="26" y="588">
hasGraduated : Boolean</text>
<text font-family="Dialog" font-size="13" x="26" y="606">
description : String</text>
<rect fill="#000000" height="1" stroke="#000000" stroke-width="1" width="165" x="22" y="617"/>
<polyline fill="none" points="318,509 186,509" stroke="#000000" stroke-width="1"/>
<line fill="#000000" stroke="#000000" stroke-width="1" x1="198" x2="186" y1="502" y2="509"/>
<line fill="#000000" stroke="#000000" stroke-width="1" x1="198" x2="186" y1="516" y2="509"/>
<text font-family="Dialog" font-size="13" x="213" y="525">
studiedAt</text>
<text font-family="Dialog" font-size="13" x="300" y="501">
1</text>
<text font-family="Dialog" font-size="13" x="191" y="502">
0..*</text>
<polyline fill="none" points="318,270 286,270 286,302 318,302" stroke="#000000" stroke-width="1"/>
<text font-family="Dialog" font-size="13" x="282" y="264">
0..*</text>
<text font-family="Dialog" font-size="13" x="292" y="322">
0..*</text>
<ellipse cx="288" cy="286" fill="#000000" rx="0.5" ry="0.5" stroke="#000000" stroke-width="1"/>
<ellipse cx="289" cy="287" fill="#ffffff" rx="-0.5" ry="-0.5" stroke="#ffffff" stroke-width="1"/>
<rect fill="#ffffff" height="127" stroke="#ffffff" stroke-width="1" width="252" x="14" y="230"/>
<rect fill="none" height="127" stroke="#000000" stroke-width="1" width="252" x="14" y="230"/>
<text font-family="Dialog" font-size="13" x="103" y="244">
FriendsWith</text>
<rect fill="#000000" height="1" stroke="#000000" stroke-width="1" width="252" x="14" y="255"/>
<text font-family="Dialog" font-size="13" x="18" y="270">
requestStatus : REQUEST_STATUS</text>
<text font-family="Dialog" font-size="13" x="18" y="288">
blockedStatus : Boolean</text>
<text font-family="Dialog" font-size="13" x="18" y="306">
friend_request_sent : TimeStamp</text>
<text font-family="Dialog" font-size="13" x="18" y="324">
friend_request_accepted : TimeStamp</text>
<rect fill="#000000" height="1" stroke="#000000" stroke-width="1" width="252" x="14" y="335"/>
<line fill="#000000" stroke="#000000" stroke-width="1" x1="288" x2="283" y1="286" y2="286"/>
<line fill="#000000" stroke="#000000" stroke-width="1" x1="278" x2="273" y1="286" y2="286"/>
<line fill="#000000" stroke="#000000" stroke-width="1" x1="268" x2="265" y1="286" y2="286"/>
<polyline fill="none" points="542,318 606,318 606,366 542,366" stroke="#000000" stroke-width="1"/>
<text font-family="Dialog" font-size="13" x="544" y="335">
0..*</text>
<text font-family="Dialog" font-size="13" x="582" y="313">
sends</text>
<text font-family="Dialog" font-size="13" x="547" y="359">
0..*</text>
<text font-family="Dialog" font-size="13" x="601" y="381">
recieves</text>
<ellipse cx="608" cy="342" fill="#000000" rx="0.5" ry="0.5" stroke="#000000" stroke-width="1"/>
<ellipse cx="609" cy="343" fill="#ffffff" rx="-0.5" ry="-0.5" stroke="#ffffff" stroke-width="1"/>
<rect fill="#ffffff" height="91" stroke="#ffffff" stroke-width="1" width="147" x="654" y="286"/>
<rect fill="none" height="91" stroke="#000000" stroke-width="1" width="147" x="654" y="286"/>
<text font-family="Dialog" font-size="13" x="699" y="300">
Message</text>
<rect fill="#000000" height="1" stroke="#000000" stroke-width="1" width="147" x="654" y="311"/>
<text font-family="Dialog" font-size="13" x="658" y="326">
text : String</text>
<text font-family="Dialog" font-size="13" x="658" y="344">
sentAt : TimeStamp</text>
<rect fill="#000000" height="1" stroke="#000000" stroke-width="1" width="147" x="654" y="355"/>
<line fill="#000000" stroke="#000000" stroke-width="1" x1="608" x2="606" y1="342" y2="342"/>
<line fill="#000000" stroke="#000000" stroke-width="1" x1="606" x2="611" y1="342" y2="342"/>
<line fill="#000000" stroke="#000000" stroke-width="1" x1="616" x2="621" y1="342" y2="342"/>
<line fill="#000000" stroke="#000000" stroke-width="1" x1="626" x2="631" y1="342" y2="342"/>
<line fill="#000000" stroke="#000000" stroke-width="1" x1="636" x2="641" y1="342" y2="342"/>
<line fill="#000000" stroke="#000000" stroke-width="1" x1="646" x2="651" y1="342" y2="342"/>
<polyline fill="none" points="334,254 334,214 390,214 390,254" stroke="#000000" stroke-width="1"/>
<text font-family="Dialog" font-size="13" x="305" y="247">
0..*</text>
<text font-family="Dialog" font-size="13" x="395" y="247">
0..*</text>
<ellipse cx="362" cy="212" fill="#000000" rx="0.5" ry="0.5" stroke="#000000" stroke-width="1"/>
<ellipse cx="363" cy="213" fill="#ffffff" rx="-0.5" ry="-0.5" stroke="#ffffff" stroke-width="1"/>
<rect fill="#ffffff" height="91" stroke="#ffffff" stroke-width="1" width="333" x="190" y="126"/>
<rect fill="none" height="91" stroke="#000000" stroke-width="1" width="333" x="190" y="126"/>
<text font-family="Dialog" font-size="13" x="327" y="140">
Invitation</text>
<rect fill="#000000" height="1" stroke="#000000" stroke-width="1" width="333" x="190" y="151"/>
<text font-family="Dialog" font-size="13" x="194" y="166">
eventAcceptanceStatus : CONFIRMATION_STATUS</text>
<text font-family="Dialog" font-size="13" x="194" y="184">
invitedOn : TimeStamp</text>
<rect fill="#000000" height="1" stroke="#000000" stroke-width="1" width="333" x="190" y="195"/>
<line fill="#000000" stroke="#000000" stroke-width="1" x1="362" x2="362" y1="212" y2="216"/>
<polyline fill="none" points="522,166 662,166" stroke="#000000" stroke-width="1"/>
<text font-family="Dialog" font-size="13" x="548" y="183">
invitationOf</text>
<text font-family="Dialog" font-size="13" x="535" y="159">
1</text>
<text font-family="Dialog" font-size="13" x="641" y="159">
1</text>
<polyline fill="none" points="366,524 366,558 462,558 462,524" stroke="#000000" stroke-width="1"/>
<text font-family="Dialog" font-size="13" x="336" y="547">
0..*</text>
<text font-family="Dialog" font-size="13" x="356" y="584">
posts</text>
<text font-family="Dialog" font-size="13" x="468" y="538">
0..*</text>
<text font-family="Dialog" font-size="13" x="423" y="578">
recievesPost</text>
<ellipse cx="414" cy="556" fill="#000000" rx="0.5" ry="0.5" stroke="#000000" stroke-width="1"/>
<ellipse cx="415" cy="557" fill="#ffffff" rx="-0.5" ry="-0.5" stroke="#ffffff" stroke-width="1"/>
<rect fill="#ffffff" height="145" stroke="#ffffff" stroke-width="1" width="164" x="342" y="606"/>
<rect fill="none" height="145" stroke="#000000" stroke-width="1" width="164" x="342" y="606"/>
<text font-family="Dialog" font-size="13" x="410" y="620">
Post</text>
<rect fill="#000000" height="1" stroke="#000000" stroke-width="1" width="164" x="342" y="631"/>
<text font-family="Dialog" font-size="13" x="346" y="646">
text : String</text>
<text font-family="Dialog" font-size="13" x="346" y="664">
updated : TimeStamp</text>
<text font-family="Dialog" font-size="13" x="346" y="682">
type : POST_TYPE</text>
<text font-family="Dialog" font-size="13" x="346" y="700">
created : TimeStamp</text>
<text font-family="Dialog" font-size="13" x="346" y="718">
like_count : Integer</text>
<rect fill="#000000" height="1" stroke="#000000" stroke-width="1" width="164" x="342" y="729"/>
<line fill="#000000" stroke="#000000" stroke-width="1" x1="414" x2="414" y1="556" y2="561"/>
<line fill="#000000" stroke="#000000" stroke-width="1" x1="414" x2="414" y1="566" y2="571"/>
<line fill="#000000" stroke="#000000" stroke-width="1" x1="414" x2="414" y1="576" y2="581"/>
<line fill="#000000" stroke="#000000" stroke-width="1" x1="414" x2="414" y1="586" y2="591"/>
<line fill="#000000" stroke="#000000" stroke-width="1" x1="414" x2="414" y1="596" y2="601"/>
<polyline fill="none" points="505,702 734,702 734,540" stroke="#000000" stroke-width="1"/>
<polygon fill="#000000" points="505,702 515,697 525,702 515,707" stroke="#000000" stroke-width="1"/>
<polygon fill="none" points="505,702 515,697 525,702 515,707" stroke="#000000" stroke-width="1"/>
<text font-family="Dialog" font-size="13" x="656" y="642">
consistsOf</text>
<text font-family="Dialog" font-size="13" x="518" y="695">
1</text>
<text font-family="Dialog" font-size="13" x="705" y="567">
0..*</text>
<rect fill="#ffffff" height="68" stroke="#ffffff" stroke-width="1" width="110" x="534" y="14"/>
<rect fill="none" height="68" stroke="#000000" stroke-width="1" width="110" x="534" y="14"/>
<text font-family="Dialog" font-size="13" x="553" y="49">
POST_TYPE</text>
<text font-family="Dialog" font-size="13" x="538" y="29">
&lt;&lt;datatype&gt;&gt;</text>
<rect fill="#000000" height="1" stroke="#000000" stroke-width="1" width="110" x="534" y="60"/>
<rect fill="#ffffff" height="68" stroke="#ffffff" stroke-width="1" width="110" x="670" y="14"/>
<rect fill="none" height="68" stroke="#000000" stroke-width="1" width="110" x="670" y="14"/>
<text font-family="Dialog" font-size="13" x="688" y="49">
TimeStamp</text>
<text font-family="Dialog" font-size="13" x="674" y="29">
&lt;&lt;datatype&gt;&gt;</text>
<rect fill="#000000" height="1" stroke="#000000" stroke-width="1" width="110" x="670" y="60"/>
</svg>
