<?xml version="1.0" encoding="utf-8" ?>
<!DOCTYPE svg PUBLIC "-//W3C//DTD SVG 1.1//EN" "http://www.w3.org/Graphics/SVG/1.1/DTD/svg11.dtd">
<svg height="753" version="1.1" width="826" xmlns="http://www.w3.org/2000/svg">
<rect fill="#ffffff" height="256" stroke="#ffffff" stroke-width="1" width="202" x="318" y="246"/>
<rect fill="none" height="256" stroke="#000000" stroke-width="1" width="202" x="318" y="246"/>
<text font-family="Dialog" font-size="13" x="404" y="260">
User</text>
<rect fill="#000000" height="1" stroke="#000000" stroke-width="1" width="202" x="318" y="271"/>
<text font-family="Dialog" font-size="13" x="322" y="286">
firstName : String</text>
<text font-family="Dialog" font-size="13" x="322" y="304">
email : String</text>
<text font-family="Dialog" font-size="13" x="322" y="322">
password : String</text>
<text font-family="Dialog" font-size="13" x="322" y="340">
dob : Date</text>
<text font-family="Dialog" font-size="13" x="322" y="358">
phoneNumber : Integer</text>
<text font-family="Dialog" font-size="13" x="322" y="376">
lastName : String</text>
<text font-family="Dialog" font-size="13" x="322" y="394">
place : String</text>
<text font-family="Dialog" font-size="13" x="322" y="412">
currentProfilePic : Photograph</text>
<text font-family="Dialog" font-size="13" x="322" y="430">
currentCoverPic : Photograph</text>
<text font-family="Dialog" font-size="13" x="322" y="448">
secretQuestion : String</text>
<text font-family="Dialog" font-size="13" x="322" y="466">
secretAnswer : String</text>
<rect fill="#000000" height="1" stroke="#000000" stroke-width="1" width="202" x="318" y="478"/>
<rect fill="#ffffff" height="70" stroke="#ffffff" stroke-width="1" width="109" x="398" y="14"/>
<rect fill="none" height="70" stroke="#000000" stroke-width="1" width="109" x="398" y="14"/>
<text font-family="Dialog" font-size="13" x="437" y="49">
Date</text>
<text font-family="Dialog" font-size="13" x="402" y="29">
&lt;&lt;datatype&gt;&gt;</text>
<rect fill="#000000" height="1" stroke="#000000" stroke-width="1" width="109" x="398" y="60"/>
<rect fill="#ffffff" height="91" stroke="#ffffff" stroke-width="1" width="150" x="662" y="406"/>
<rect fill="none" height="91" stroke="#000000" stroke-width="1" width="150" x="662" y="406"/>
<text font-family="Dialog" font-size="13" x="705" y="420">
Comment</text>
<rect fill="#000000" height="1" stroke="#000000" stroke-width="1" width="150" x="662" y="431"/>
<text font-family="Dialog" font-size="13" x="666" y="446">
commentText : String</text>
<text font-family="Dialog" font-size="13" x="666" y="464">
timestamp : Date</text>
<rect fill="#000000" height="1" stroke="#000000" stroke-width="1" width="150" x="662" y="475"/>
<rect fill="#ffffff" height="68" stroke="#ffffff" stroke-width="1" width="120" x="254" y="14"/>
<rect fill="none" height="68" stroke="#000000" stroke-width="1" width="120" x="254" y="14"/>
<text font-family="Dialog" font-size="13" x="295" y="49">
Photo</text>
<text font-family="Dialog" font-size="13" x="263" y="29">
&lt;&lt;datatype&gt;&gt;</text>
<rect fill="#000000" height="1" stroke="#000000" stroke-width="1" width="120" x="254" y="60"/>
<rect fill="#ffffff" height="145" stroke="#ffffff" stroke-width="1" width="135" x="662" y="126"/>
<rect fill="none" height="145" stroke="#000000" stroke-width="1" width="135" x="662" y="126"/>
<text font-family="Dialog" font-size="13" x="711" y="140">
Event</text>
<rect fill="#000000" height="1" stroke="#000000" stroke-width="1" width="135" x="662" y="151"/>
<text font-family="Dialog" font-size="13" x="666" y="166">
title : String</text>
<text font-family="Dialog" font-size="13" x="666" y="184">
description : String</text>
<text font-family="Dialog" font-size="13" x="666" y="202">
when : Date</text>
<text font-family="Dialog" font-size="13" x="666" y="220">
where : String</text>
<text font-family="Dialog" font-size="13" x="666" y="238">
place : String</text>
<rect fill="#000000" height="1" stroke="#000000" stroke-width="1" width="135" x="662" y="249"/>
<polyline fill="none" points="519,246 662,246" stroke="#000000" stroke-width="1"/>
<line fill="#000000" stroke="#000000" stroke-width="1" x1="650" x2="662" y1="253" y2="246"/>
<line fill="#000000" stroke="#000000" stroke-width="1" x1="650" x2="662" y1="239" y2="246"/>
<text font-family="Dialog" font-size="13" x="539" y="239">
Creates</text>
<text font-family="Dialog" font-size="13" x="538" y="262">
1</text>
<text font-family="Dialog" font-size="13" x="616" y="261">
0..*</text>
<polyline fill="none" points="494,654 550,654 550,502 519,501" stroke="#000000" stroke-width="1"/>
<line fill="#000000" stroke="#000000" stroke-width="1" x1="531" x2="519" y1="494" y2="501"/>
<line fill="#000000" stroke="#000000" stroke-width="1" x1="530" x2="519" y1="508" y2="501"/>
<text font-family="Dialog" font-size="13" x="552" y="603">
Liked</text>
<text font-family="Dialog" font-size="13" x="504" y="648">
0..*</text>
<text font-family="Dialog" font-size="13" x="520" y="517">
0..*</text>
<polyline fill="none" points="662,414 519,414" stroke="#000000" stroke-width="1"/>
<line fill="#000000" stroke="#000000" stroke-width="1" x1="531" x2="519" y1="407" y2="414"/>
<line fill="#000000" stroke="#000000" stroke-width="1" x1="531" x2="519" y1="421" y2="414"/>
<text font-family="Dialog" font-size="13" x="578" y="404">
Liked</text>
<text font-family="Dialog" font-size="13" x="634" y="408">
0..*</text>
<text font-family="Dialog" font-size="13" x="532" y="408">
0..*</text>
<polyline fill="none" points="519,478 662,478" stroke="#000000" stroke-width="1"/>
<text font-family="Dialog" font-size="13" x="554" y="472">
Comments</text>
<text font-family="Dialog" font-size="13" x="530" y="471">
1</text>
<text font-family="Dialog" font-size="13" x="633" y="471">
0..*</text>
<rect fill="#ffffff" height="70" stroke="#ffffff" stroke-width="1" width="131" x="518" y="14"/>
<rect fill="none" height="70" stroke="#000000" stroke-width="1" width="131" x="518" y="14"/>
<text font-family="Dialog" font-size="13" x="524" y="49">
REQUEST_STATUS</text>
<text font-family="Dialog" font-size="13" x="533" y="29">
&lt;&lt;datatype&gt;&gt;</text>
<rect fill="#000000" height="1" stroke="#000000" stroke-width="1" width="131" x="518" y="60"/>
<rect fill="#ffffff" height="68" stroke="#ffffff" stroke-width="1" width="196" x="30" y="14"/>
<rect fill="none" height="68" stroke="#000000" stroke-width="1" width="196" x="30" y="14"/>
<text font-family="Dialog" font-size="13" x="50" y="49">
CONFIRMATION_STATUS</text>
<text font-family="Dialog" font-size="13" x="77" y="29">
&lt;&lt;datatype&gt;&gt;</text>
<rect fill="#000000" height="1" stroke="#000000" stroke-width="1" width="196" x="30" y="60"/>
<rect fill="#ffffff" height="127" stroke="#ffffff" stroke-width="1" width="121" x="30" y="350"/>
<rect fill="none" height="127" stroke="#000000" stroke-width="1" width="121" x="30" y="350"/>
<text font-family="Dialog" font-size="13" x="50" y="364">
Organization</text>
<rect fill="#000000" height="1" stroke="#000000" stroke-width="1" width="121" x="30" y="375"/>
<text font-family="Dialog" font-size="13" x="34" y="390">
company : String</text>
<text font-family="Dialog" font-size="13" x="34" y="408">
from : Date</text>
<text font-family="Dialog" font-size="13" x="34" y="426">
to : Date</text>
<text font-family="Dialog" font-size="13" x="34" y="444">
position : String</text>
<rect fill="#000000" height="1" stroke="#000000" stroke-width="1" width="121" x="30" y="455"/>
<polyline fill="none" points="318,406 150,406" stroke="#000000" stroke-width="1"/>
<line fill="#000000" stroke="#000000" stroke-width="1" x1="162" x2="150" y1="399" y2="406"/>
<line fill="#000000" stroke="#000000" stroke-width="1" x1="162" x2="150" y1="413" y2="406"/>
<text font-family="Dialog" font-size="13" x="198" y="422">
worksFor</text>
<text font-family="Dialog" font-size="13" x="306" y="400">
1</text>
<text font-family="Dialog" font-size="13" x="167" y="400">
0..*</text>
<rect fill="#ffffff" height="145" stroke="#ffffff" stroke-width="1" width="150" x="22" y="486"/>
<rect fill="none" height="145" stroke="#000000" stroke-width="1" width="150" x="22" y="486"/>
<text font-family="Dialog" font-size="13" x="71" y="500">
Institute</text>
<rect fill="#000000" height="1" stroke="#000000" stroke-width="1" width="150" x="22" y="511"/>
<text font-family="Dialog" font-size="13" x="26" y="526">
name : String</text>
<text font-family="Dialog" font-size="13" x="26" y="544">
from : Date</text>
<text font-family="Dialog" font-size="13" x="26" y="562">
to : Date</text>
<text font-family="Dialog" font-size="13" x="26" y="580">
hasGraduated : Boolean</text>
<text font-family="Dialog" font-size="13" x="26" y="598">
description : String</text>
<rect fill="#000000" height="1" stroke="#000000" stroke-width="1" width="150" x="22" y="609"/>
<polyline fill="none" points="318,501 171,501" stroke="#000000" stroke-width="1"/>
<line fill="#000000" stroke="#000000" stroke-width="1" x1="183" x2="171" y1="494" y2="501"/>
<line fill="#000000" stroke="#000000" stroke-width="1" x1="183" x2="171" y1="508" y2="501"/>
<text font-family="Dialog" font-size="13" x="206" y="517">
studiedAt</text>
<text font-family="Dialog" font-size="13" x="300" y="493">
1</text>
<text font-family="Dialog" font-size="13" x="176" y="494">
0..*</text>
<polyline fill="none" points="318,262 286,262 286,294 318,294" stroke="#000000" stroke-width="1"/>
<text font-family="Dialog" font-size="13" x="282" y="256">
0..*</text>
<text font-family="Dialog" font-size="13" x="292" y="314">
0..*</text>
<ellipse cx="288" cy="278" fill="#000000" rx="0.5" ry="0.5" stroke="#000000" stroke-width="1"/>
<ellipse cx="289" cy="279" fill="#ffffff" rx="-0.5" ry="-0.5" stroke="#ffffff" stroke-width="1"/>
<rect fill="#ffffff" height="91" stroke="#ffffff" stroke-width="1" width="230" x="14" y="238"/>
<rect fill="none" height="91" stroke="#000000" stroke-width="1" width="230" x="14" y="238"/>
<text font-family="Dialog" font-size="13" x="92" y="252">
FriendsWith</text>
<rect fill="#000000" height="1" stroke="#000000" stroke-width="1" width="230" x="14" y="263"/>
<text font-family="Dialog" font-size="13" x="18" y="278">
requestStatus : REQUEST_STATUS</text>
<text font-family="Dialog" font-size="13" x="18" y="296">
blockedStatus : Boolean</text>
<rect fill="#000000" height="1" stroke="#000000" stroke-width="1" width="230" x="14" y="307"/>
<line fill="#000000" stroke="#000000" stroke-width="1" x1="288" x2="283" y1="278" y2="278"/>
<line fill="#000000" stroke="#000000" stroke-width="1" x1="278" x2="273" y1="278" y2="278"/>
<line fill="#000000" stroke="#000000" stroke-width="1" x1="268" x2="263" y1="278" y2="278"/>
<line fill="#000000" stroke="#000000" stroke-width="1" x1="258" x2="253" y1="278" y2="278"/>
<line fill="#000000" stroke="#000000" stroke-width="1" x1="248" x2="243" y1="278" y2="278"/>
<polyline fill="none" points="519,310 606,310 606,358 519,358" stroke="#000000" stroke-width="1"/>
<text font-family="Dialog" font-size="13" x="521" y="327">
0..*</text>
<text font-family="Dialog" font-size="13" x="559" y="305">
sends</text>
<text font-family="Dialog" font-size="13" x="524" y="351">
0..*</text>
<text font-family="Dialog" font-size="13" x="578" y="373">
recieves</text>
<ellipse cx="608" cy="334" fill="#000000" rx="0.5" ry="0.5" stroke="#000000" stroke-width="1"/>
<ellipse cx="609" cy="335" fill="#ffffff" rx="-0.5" ry="-0.5" stroke="#ffffff" stroke-width="1"/>
<rect fill="#ffffff" height="91" stroke="#ffffff" stroke-width="1" width="147" x="654" y="278"/>
<rect fill="none" height="91" stroke="#000000" stroke-width="1" width="147" x="654" y="278"/>
<text font-family="Dialog" font-size="13" x="699" y="292">
Message</text>
<rect fill="#000000" height="1" stroke="#000000" stroke-width="1" width="147" x="654" y="303"/>
<text font-family="Dialog" font-size="13" x="658" y="318">
messageText : String</text>
<text font-family="Dialog" font-size="13" x="658" y="336">
timestamp : Date</text>
<rect fill="#000000" height="1" stroke="#000000" stroke-width="1" width="147" x="654" y="347"/>
<line fill="#000000" stroke="#000000" stroke-width="1" x1="608" x2="606" y1="334" y2="334"/>
<line fill="#000000" stroke="#000000" stroke-width="1" x1="606" x2="611" y1="334" y2="334"/>
<line fill="#000000" stroke="#000000" stroke-width="1" x1="616" x2="621" y1="334" y2="334"/>
<line fill="#000000" stroke="#000000" stroke-width="1" x1="626" x2="631" y1="334" y2="334"/>
<line fill="#000000" stroke="#000000" stroke-width="1" x1="636" x2="641" y1="334" y2="334"/>
<line fill="#000000" stroke="#000000" stroke-width="1" x1="646" x2="651" y1="334" y2="334"/>
<polyline fill="none" points="334,246 334,206 390,206 390,246" stroke="#000000" stroke-width="1"/>
<text font-family="Dialog" font-size="13" x="305" y="239">
0..*</text>
<text font-family="Dialog" font-size="13" x="395" y="239">
0..*</text>
<ellipse cx="362" cy="204" fill="#000000" rx="0.5" ry="0.5" stroke="#000000" stroke-width="1"/>
<ellipse cx="363" cy="205" fill="#ffffff" rx="-0.5" ry="-0.5" stroke="#ffffff" stroke-width="1"/>
<rect fill="#ffffff" height="73" stroke="#ffffff" stroke-width="1" width="328" x="190" y="118"/>
<rect fill="none" height="73" stroke="#000000" stroke-width="1" width="328" x="190" y="118"/>
<text font-family="Dialog" font-size="13" x="307" y="132">
EventInvitation</text>
<rect fill="#000000" height="1" stroke="#000000" stroke-width="1" width="328" x="190" y="143"/>
<text font-family="Dialog" font-size="13" x="194" y="158">
eventAcceptanceStatus : CONFIRMATION_STATUS</text>
<rect fill="#000000" height="1" stroke="#000000" stroke-width="1" width="328" x="190" y="169"/>
<line fill="#000000" stroke="#000000" stroke-width="1" x1="362" x2="362" y1="204" y2="199"/>
<line fill="#000000" stroke="#000000" stroke-width="1" x1="362" x2="362" y1="194" y2="190"/>
<polyline fill="none" points="517,158 662,158" stroke="#000000" stroke-width="1"/>
<text font-family="Dialog" font-size="13" x="545" y="175">
invitationOf</text>
<text font-family="Dialog" font-size="13" x="530" y="151">
1</text>
<text font-family="Dialog" font-size="13" x="641" y="151">
1</text>
<polyline fill="none" points="366,501 366,550 462,550 462,501" stroke="#000000" stroke-width="1"/>
<text font-family="Dialog" font-size="13" x="336" y="520">
0..*</text>
<text font-family="Dialog" font-size="13" x="346" y="565">
posts</text>
<text font-family="Dialog" font-size="13" x="468" y="515">
0..*</text>
<text font-family="Dialog" font-size="13" x="424" y="565">
recievesPost</text>
<ellipse cx="414" cy="548" fill="#000000" rx="0.5" ry="0.5" stroke="#000000" stroke-width="1"/>
<ellipse cx="415" cy="549" fill="#ffffff" rx="-0.5" ry="-0.5" stroke="#ffffff" stroke-width="1"/>
<rect fill="#ffffff" height="109" stroke="#ffffff" stroke-width="1" width="153" x="342" y="630"/>
<rect fill="none" height="109" stroke="#000000" stroke-width="1" width="153" x="342" y="630"/>
<text font-family="Dialog" font-size="13" x="404" y="644">
Post</text>
<rect fill="#000000" height="1" stroke="#000000" stroke-width="1" width="153" x="342" y="655"/>
<text font-family="Dialog" font-size="13" x="346" y="670">
postText : String</text>
<text font-family="Dialog" font-size="13" x="346" y="688">
timestamp : Date</text>
<text font-family="Dialog" font-size="13" x="346" y="706">
postType : POST_TYPE</text>
<rect fill="#000000" height="1" stroke="#000000" stroke-width="1" width="153" x="342" y="717"/>
<line fill="#000000" stroke="#000000" stroke-width="1" x1="414" x2="414" y1="548" y2="553"/>
<line fill="#000000" stroke="#000000" stroke-width="1" x1="414" x2="414" y1="558" y2="563"/>
<line fill="#000000" stroke="#000000" stroke-width="1" x1="414" x2="414" y1="568" y2="573"/>
<line fill="#000000" stroke="#000000" stroke-width="1" x1="414" x2="414" y1="578" y2="583"/>
<line fill="#000000" stroke="#000000" stroke-width="1" x1="414" x2="414" y1="588" y2="593"/>
<line fill="#000000" stroke="#000000" stroke-width="1" x1="414" x2="414" y1="598" y2="603"/>
<line fill="#000000" stroke="#000000" stroke-width="1" x1="414" x2="414" y1="608" y2="613"/>
<line fill="#000000" stroke="#000000" stroke-width="1" x1="414" x2="414" y1="618" y2="623"/>
<line fill="#000000" stroke="#000000" stroke-width="1" x1="414" x2="414" y1="628" y2="630"/>
<polyline fill="none" points="494,694 734,694 734,496" stroke="#000000" stroke-width="1"/>
<polygon fill="#000000" points="494,694 504,689 514,694 504,699" stroke="#000000" stroke-width="1"/>
<polygon fill="none" points="494,694 504,689 514,694 504,699" stroke="#000000" stroke-width="1"/>
<text font-family="Dialog" font-size="13" x="669" y="634">
consistsOf</text>
<text font-family="Dialog" font-size="13" x="507" y="687">
1</text>
<text font-family="Dialog" font-size="13" x="705" y="523">
0..*</text>
</svg>
