<?xml version="1.0" encoding="utf-8" ?>
<!DOCTYPE svg PUBLIC "-//W3C//DTD SVG 1.1//EN" "http://www.w3.org/Graphics/SVG/1.1/DTD/svg11.dtd">
<svg height="837" version="1.1" width="826" xmlns="http://www.w3.org/2000/svg">
<rect fill="#ffffff" height="258" stroke="#ffffff" stroke-width="1" width="219" x="318" y="246"/>
<rect fill="none" height="258" stroke="#000000" stroke-width="1" width="219" x="318" y="246"/>
<text font-family="Lucida Grande" font-size="13" x="413" y="260">
User</text>
<rect fill="#000000" height="1" stroke="#000000" stroke-width="1" width="219" x="318" y="270"/>
<text font-family="Lucida Grande" font-size="13" x="322" y="285">
firstName : String</text>
<text font-family="Lucida Grande" font-size="13" x="322" y="302">
email : String</text>
<text font-family="Lucida Grande" font-size="13" x="322" y="319">
password : String</text>
<text font-family="Lucida Grande" font-size="13" x="322" y="336">
dob : Date</text>
<text font-family="Lucida Grande" font-size="13" x="322" y="353">
phoneNumber : Integer</text>
<text font-family="Lucida Grande" font-size="13" x="322" y="370">
lastName : String</text>
<text font-family="Lucida Grande" font-size="13" x="322" y="387">
place : String</text>
<text font-family="Lucida Grande" font-size="13" x="322" y="404">
currentProfilePic : Photo</text>
<text font-family="Lucida Grande" font-size="13" x="322" y="421">
currentCoverPic : Photo</text>
<text font-family="Lucida Grande" font-size="13" x="322" y="438">
secretQuestion : String</text>
<text font-family="Lucida Grande" font-size="13" x="322" y="455">
secretAnswer : String</text>
<text font-family="Lucida Grande" font-size="13" x="322" y="472">
profile_created_time : TimeStamp</text>
<rect fill="#000000" height="1" stroke="#000000" stroke-width="1" width="219" x="318" y="482"/>
<rect fill="#ffffff" height="73" stroke="#ffffff" stroke-width="1" width="110" x="566" y="750"/>
<rect fill="none" height="73" stroke="#000000" stroke-width="1" width="110" x="566" y="750"/>
<text font-family="Lucida Grande" font-size="13" x="591" y="784">
DateTime</text>
<text font-family="Lucida Grande" font-size="13" x="574" y="765">
&lt;&lt;datatype&gt;&gt;</text>
<rect fill="#000000" height="1" stroke="#000000" stroke-width="1" width="110" x="566" y="794"/>
<rect fill="#ffffff" height="109" stroke="#ffffff" stroke-width="1" width="150" x="662" y="406"/>
<rect fill="none" height="109" stroke="#000000" stroke-width="1" width="150" x="662" y="406"/>
<text font-family="Lucida Grande" font-size="13" x="706" y="420">
Comment</text>
<rect fill="#000000" height="1" stroke="#000000" stroke-width="1" width="150" x="662" y="430"/>
<text font-family="Lucida Grande" font-size="13" x="666" y="445">
text : String</text>
<text font-family="Lucida Grande" font-size="13" x="666" y="462">
created : DateTime</text>
<text font-family="Lucida Grande" font-size="13" x="666" y="479">
updated : TimeStamp</text>
<rect fill="#000000" height="1" stroke="#000000" stroke-width="1" width="150" x="662" y="491"/>
<rect fill="#ffffff" height="68" stroke="#ffffff" stroke-width="1" width="120" x="326" y="14"/>
<rect fill="none" height="68" stroke="#000000" stroke-width="1" width="120" x="326" y="14"/>
<text font-family="Lucida Grande" font-size="13" x="368" y="48">
Photo</text>
<text font-family="Lucida Grande" font-size="13" x="339" y="29">
&lt;&lt;datatype&gt;&gt;</text>
<rect fill="#000000" height="1" stroke="#000000" stroke-width="1" width="120" x="326" y="58"/>
<rect fill="#ffffff" height="145" stroke="#ffffff" stroke-width="1" width="135" x="662" y="126"/>
<rect fill="none" height="145" stroke="#000000" stroke-width="1" width="135" x="662" y="126"/>
<text font-family="Lucida Grande" font-size="13" x="712" y="140">
Event</text>
<rect fill="#000000" height="1" stroke="#000000" stroke-width="1" width="135" x="662" y="150"/>
<text font-family="Lucida Grande" font-size="13" x="666" y="165">
title : String</text>
<text font-family="Lucida Grande" font-size="13" x="666" y="182">
description : String</text>
<text font-family="Lucida Grande" font-size="13" x="666" y="199">
when : DateTime</text>
<text font-family="Lucida Grande" font-size="13" x="666" y="216">
where : String</text>
<text font-family="Lucida Grande" font-size="13" x="666" y="233">
place : String</text>
<rect fill="#000000" height="1" stroke="#000000" stroke-width="1" width="135" x="662" y="246"/>
<polyline fill="none" points="536,246 662,246" stroke="#000000" stroke-width="1"/>
<line fill="#000000" stroke="#000000" stroke-width="1" x1="650" x2="662" y1="253" y2="246"/>
<line fill="#000000" stroke="#000000" stroke-width="1" x1="650" x2="662" y1="239" y2="246"/>
<text font-family="Lucida Grande" font-size="13" x="548" y="239">
Creates</text>
<text font-family="Lucida Grande" font-size="13" x="555" y="262">
1</text>
<text font-family="Lucida Grande" font-size="13" x="617" y="261">
0..*</text>
<polyline fill="none" points="505,654 550,654 550,502 536,502" stroke="#000000" stroke-width="1"/>
<line fill="#000000" stroke="#000000" stroke-width="1" x1="548" x2="536" y1="495" y2="502"/>
<line fill="#000000" stroke="#000000" stroke-width="1" x1="548" x2="536" y1="509" y2="502"/>
<text font-family="Lucida Grande" font-size="13" x="552" y="606">
Liked</text>
<text font-family="Lucida Grande" font-size="13" x="516" y="648">
0..*</text>
<text font-family="Lucida Grande" font-size="13" x="529" y="553">
0..*</text>
<polyline fill="none" points="662,414 536,414" stroke="#000000" stroke-width="1"/>
<line fill="#000000" stroke="#000000" stroke-width="1" x1="548" x2="536" y1="407" y2="414"/>
<line fill="#000000" stroke="#000000" stroke-width="1" x1="548" x2="536" y1="421" y2="414"/>
<text font-family="Lucida Grande" font-size="13" x="586" y="404">
Liked</text>
<text font-family="Lucida Grande" font-size="13" x="635" y="408">
0..*</text>
<text font-family="Lucida Grande" font-size="13" x="549" y="409">
0..*</text>
<polyline fill="none" points="536,478 662,478" stroke="#000000" stroke-width="1"/>
<text font-family="Lucida Grande" font-size="13" x="558" y="472">
Comments</text>
<text font-family="Lucida Grande" font-size="13" x="546" y="473">
1</text>
<text font-family="Lucida Grande" font-size="13" x="636" y="473">
0..*</text>
<rect fill="#ffffff" height="70" stroke="#ffffff" stroke-width="1" width="131" x="486" y="14"/>
<rect fill="none" height="70" stroke="#000000" stroke-width="1" width="131" x="486" y="14"/>
<text font-family="Lucida Grande" font-size="13" x="496" y="48">
REQUEST_STATUS</text>
<text font-family="Lucida Grande" font-size="13" x="504" y="29">
&lt;&lt;datatype&gt;&gt;</text>
<rect fill="#000000" height="1" stroke="#000000" stroke-width="1" width="131" x="486" y="58"/>
<rect fill="#ffffff" height="68" stroke="#ffffff" stroke-width="1" width="196" x="86" y="14"/>
<rect fill="none" height="68" stroke="#000000" stroke-width="1" width="196" x="86" y="14"/>
<text font-family="Lucida Grande" font-size="13" x="106" y="48">
CONFIRMATION_STATUS</text>
<text font-family="Lucida Grande" font-size="13" x="137" y="29">
&lt;&lt;datatype&gt;&gt;</text>
<rect fill="#000000" height="1" stroke="#000000" stroke-width="1" width="196" x="86" y="58"/>
<rect fill="#ffffff" height="127" stroke="#ffffff" stroke-width="1" width="121" x="30" y="350"/>
<rect fill="none" height="127" stroke="#000000" stroke-width="1" width="121" x="30" y="350"/>
<text font-family="Lucida Grande" font-size="13" x="50" y="364">
Organization</text>
<rect fill="#000000" height="1" stroke="#000000" stroke-width="1" width="121" x="30" y="374"/>
<text font-family="Lucida Grande" font-size="13" x="34" y="389">
name : String</text>
<text font-family="Lucida Grande" font-size="13" x="34" y="406">
from : Date</text>
<text font-family="Lucida Grande" font-size="13" x="34" y="423">
to : Date</text>
<text font-family="Lucida Grande" font-size="13" x="34" y="440">
position : String</text>
<rect fill="#000000" height="1" stroke="#000000" stroke-width="1" width="121" x="30" y="452"/>
<polyline fill="none" points="318,406 150,406" stroke="#000000" stroke-width="1"/>
<line fill="#000000" stroke="#000000" stroke-width="1" x1="162" x2="150" y1="399" y2="406"/>
<line fill="#000000" stroke="#000000" stroke-width="1" x1="162" x2="150" y1="413" y2="406"/>
<text font-family="Lucida Grande" font-size="13" x="198" y="422">
worksFor</text>
<text font-family="Lucida Grande" font-size="13" x="306" y="400">
1</text>
<text font-family="Lucida Grande" font-size="13" x="164" y="401">
0..*</text>
<rect fill="#ffffff" height="145" stroke="#ffffff" stroke-width="1" width="165" x="22" y="486"/>
<rect fill="none" height="145" stroke="#000000" stroke-width="1" width="165" x="22" y="486"/>
<text font-family="Lucida Grande" font-size="13" x="78" y="500">
Institute</text>
<rect fill="#000000" height="1" stroke="#000000" stroke-width="1" width="165" x="22" y="510"/>
<text font-family="Lucida Grande" font-size="13" x="26" y="525">
name : String</text>
<text font-family="Lucida Grande" font-size="13" x="26" y="542">
from : Date</text>
<text font-family="Lucida Grande" font-size="13" x="26" y="559">
to : Date</text>
<text font-family="Lucida Grande" font-size="13" x="26" y="576">
hasGraduated : Boolean</text>
<text font-family="Lucida Grande" font-size="13" x="26" y="593">
description : String</text>
<rect fill="#000000" height="1" stroke="#000000" stroke-width="1" width="165" x="22" y="606"/>
<polyline fill="none" points="318,501 186,501" stroke="#000000" stroke-width="1"/>
<line fill="#000000" stroke="#000000" stroke-width="1" x1="198" x2="186" y1="494" y2="501"/>
<line fill="#000000" stroke="#000000" stroke-width="1" x1="198" x2="186" y1="508" y2="501"/>
<text font-family="Lucida Grande" font-size="13" x="213" y="517">
studiedAt</text>
<text font-family="Lucida Grande" font-size="13" x="300" y="493">
1</text>
<text font-family="Lucida Grande" font-size="13" x="190" y="496">
0..*</text>
<polyline fill="none" points="318,262 286,262 286,294 318,294" stroke="#000000" stroke-width="1"/>
<text font-family="Lucida Grande" font-size="13" x="284" y="257">
0..*</text>
<text font-family="Lucida Grande" font-size="13" x="293" y="314">
0..*</text>
<ellipse cx="288" cy="278" fill="#000000" rx="0.5" ry="0.5" stroke="#000000" stroke-width="1"/>
<ellipse cx="289" cy="279" fill="#ffffff" rx="-0.5" ry="-0.5" stroke="#ffffff" stroke-width="1"/>
<rect fill="#ffffff" height="122" stroke="#ffffff" stroke-width="1" width="244" x="14" y="222"/>
<rect fill="none" height="122" stroke="#000000" stroke-width="1" width="244" x="14" y="222"/>
<text font-family="Lucida Grande" font-size="13" x="99" y="236">
FriendsWith</text>
<rect fill="#000000" height="1" stroke="#000000" stroke-width="1" width="244" x="14" y="246"/>
<text font-family="Lucida Grande" font-size="13" x="18" y="261">
requestStatus : REQUEST_STATUS</text>
<text font-family="Lucida Grande" font-size="13" x="18" y="278">
blockedStatus : Boolean</text>
<text font-family="Lucida Grande" font-size="13" x="18" y="295">
friend_request_sent : TimeStamp</text>
<text font-family="Lucida Grande" font-size="13" x="18" y="312">
friend_request_accepted : TimeStamp</text>
<rect fill="#000000" height="1" stroke="#000000" stroke-width="1" width="244" x="14" y="322"/>
<line fill="#000000" stroke="#000000" stroke-width="1" x1="288" x2="283" y1="278" y2="278"/>
<line fill="#000000" stroke="#000000" stroke-width="1" x1="278" x2="273" y1="278" y2="278"/>
<line fill="#000000" stroke="#000000" stroke-width="1" x1="268" x2="263" y1="278" y2="278"/>
<line fill="#000000" stroke="#000000" stroke-width="1" x1="258" x2="257" y1="278" y2="278"/>
<polyline fill="none" points="536,310 606,310 606,358 536,358" stroke="#000000" stroke-width="1"/>
<text font-family="Lucida Grande" font-size="13" x="539" y="327">
0..*</text>
<text font-family="Lucida Grande" font-size="13" x="577" y="306">
sends</text>
<text font-family="Lucida Grande" font-size="13" x="540" y="353">
0..*</text>
<text font-family="Lucida Grande" font-size="13" x="592" y="373">
recieves</text>
<ellipse cx="608" cy="334" fill="#000000" rx="0.5" ry="0.5" stroke="#000000" stroke-width="1"/>
<ellipse cx="609" cy="335" fill="#ffffff" rx="-0.5" ry="-0.5" stroke="#ffffff" stroke-width="1"/>
<rect fill="#ffffff" height="91" stroke="#ffffff" stroke-width="1" width="147" x="654" y="278"/>
<rect fill="none" height="91" stroke="#000000" stroke-width="1" width="147" x="654" y="278"/>
<text font-family="Lucida Grande" font-size="13" x="700" y="292">
Message</text>
<rect fill="#000000" height="1" stroke="#000000" stroke-width="1" width="147" x="654" y="302"/>
<text font-family="Lucida Grande" font-size="13" x="658" y="317">
text : String</text>
<text font-family="Lucida Grande" font-size="13" x="658" y="334">
sentAt : DateTime</text>
<rect fill="#000000" height="1" stroke="#000000" stroke-width="1" width="147" x="654" y="345"/>
<line fill="#000000" stroke="#000000" stroke-width="1" x1="608" x2="606" y1="334" y2="334"/>
<line fill="#000000" stroke="#000000" stroke-width="1" x1="606" x2="611" y1="334" y2="334"/>
<line fill="#000000" stroke="#000000" stroke-width="1" x1="616" x2="621" y1="334" y2="334"/>
<line fill="#000000" stroke="#000000" stroke-width="1" x1="626" x2="631" y1="334" y2="334"/>
<line fill="#000000" stroke="#000000" stroke-width="1" x1="636" x2="641" y1="334" y2="334"/>
<line fill="#000000" stroke="#000000" stroke-width="1" x1="646" x2="651" y1="334" y2="334"/>
<polyline fill="none" points="334,246 334,206 390,206 390,246" stroke="#000000" stroke-width="1"/>
<text font-family="Lucida Grande" font-size="13" x="306" y="239">
0..*</text>
<text font-family="Lucida Grande" font-size="13" x="396" y="239">
0..*</text>
<ellipse cx="362" cy="204" fill="#000000" rx="0.5" ry="0.5" stroke="#000000" stroke-width="1"/>
<ellipse cx="363" cy="205" fill="#ffffff" rx="-0.5" ry="-0.5" stroke="#ffffff" stroke-width="1"/>
<rect fill="#ffffff" height="91" stroke="#ffffff" stroke-width="1" width="333" x="190" y="118"/>
<rect fill="none" height="91" stroke="#000000" stroke-width="1" width="333" x="190" y="118"/>
<text font-family="Lucida Grande" font-size="13" x="326" y="132">
Invitation</text>
<rect fill="#000000" height="1" stroke="#000000" stroke-width="1" width="333" x="190" y="142"/>
<text font-family="Lucida Grande" font-size="13" x="194" y="157">
eventAcceptanceStatus : CONFIRMATION_STATUS</text>
<text font-family="Lucida Grande" font-size="13" x="194" y="174">
invitedOn : DateTime</text>
<rect fill="#000000" height="1" stroke="#000000" stroke-width="1" width="333" x="190" y="185"/>
<line fill="#000000" stroke="#000000" stroke-width="1" x1="362" x2="362" y1="204" y2="208"/>
<polyline fill="none" points="522,158 662,158" stroke="#000000" stroke-width="1"/>
<text font-family="Lucida Grande" font-size="13" x="548" y="175">
invitationOf</text>
<text font-family="Lucida Grande" font-size="13" x="533" y="153">
1</text>
<text font-family="Lucida Grande" font-size="13" x="643" y="153">
1</text>
<polyline fill="none" points="366,503 366,550 462,550 462,503" stroke="#000000" stroke-width="1"/>
<text font-family="Lucida Grande" font-size="13" x="337" y="522">
0..*</text>
<text font-family="Lucida Grande" font-size="13" x="346" y="566">
posts</text>
<text font-family="Lucida Grande" font-size="13" x="469" y="517">
0..*</text>
<text font-family="Lucida Grande" font-size="13" x="425" y="566">
recievesPost</text>
<ellipse cx="414" cy="548" fill="#000000" rx="0.5" ry="0.5" stroke="#000000" stroke-width="1"/>
<ellipse cx="415" cy="549" fill="#ffffff" rx="-0.5" ry="-0.5" stroke="#ffffff" stroke-width="1"/>
<rect fill="#ffffff" height="127" stroke="#ffffff" stroke-width="1" width="164" x="342" y="598"/>
<rect fill="none" height="127" stroke="#000000" stroke-width="1" width="164" x="342" y="598"/>
<text font-family="Lucida Grande" font-size="13" x="410" y="612">
Post</text>
<rect fill="#000000" height="1" stroke="#000000" stroke-width="1" width="164" x="342" y="622"/>
<text font-family="Lucida Grande" font-size="13" x="346" y="637">
text : String</text>
<text font-family="Lucida Grande" font-size="13" x="346" y="654">
updated : TimeStamp</text>
<text font-family="Lucida Grande" font-size="13" x="346" y="671">
type : POST_TYPE</text>
<text font-family="Lucida Grande" font-size="13" x="346" y="688">
created : DateTime</text>
<rect fill="#000000" height="1" stroke="#000000" stroke-width="1" width="164" x="342" y="700"/>
<line fill="#000000" stroke="#000000" stroke-width="1" x1="414" x2="414" y1="548" y2="553"/>
<line fill="#000000" stroke="#000000" stroke-width="1" x1="414" x2="414" y1="558" y2="563"/>
<line fill="#000000" stroke="#000000" stroke-width="1" x1="414" x2="414" y1="568" y2="573"/>
<line fill="#000000" stroke="#000000" stroke-width="1" x1="414" x2="414" y1="578" y2="583"/>
<line fill="#000000" stroke="#000000" stroke-width="1" x1="414" x2="414" y1="588" y2="593"/>
<polyline fill="none" points="505,694 734,694 734,514" stroke="#000000" stroke-width="1"/>
<polygon fill="#000000" points="505,694 515,689 525,694 515,699" stroke="#000000" stroke-width="1"/>
<polygon fill="none" points="505,694 515,689 525,694 515,699" stroke="#000000" stroke-width="1"/>
<text font-family="Lucida Grande" font-size="13" x="665" y="634">
consistsOf</text>
<text font-family="Lucida Grande" font-size="13" x="516" y="689">
1</text>
<text font-family="Lucida Grande" font-size="13" x="706" y="541">
0..*</text>
<rect fill="#ffffff" height="68" stroke="#ffffff" stroke-width="1" width="112" x="654" y="14"/>
<rect fill="none" height="68" stroke="#000000" stroke-width="1" width="112" x="654" y="14"/>
<text font-family="Lucida Grande" font-size="13" x="675" y="48">
POST_TYPE</text>
<text font-family="Lucida Grande" font-size="13" x="663" y="29">
&lt;&lt;datatype&gt;&gt;</text>
<rect fill="#000000" height="1" stroke="#000000" stroke-width="1" width="112" x="654" y="58"/>
<rect fill="#ffffff" height="73" stroke="#ffffff" stroke-width="1" width="110" x="390" y="750"/>
<rect fill="none" height="73" stroke="#000000" stroke-width="1" width="110" x="390" y="750"/>
<text font-family="Lucida Grande" font-size="13" x="410" y="784">
TimeStamp</text>
<text font-family="Lucida Grande" font-size="13" x="398" y="765">
&lt;&lt;datatype&gt;&gt;</text>
<rect fill="#000000" height="1" stroke="#000000" stroke-width="1" width="110" x="390" y="794"/>
<rect fill="#ffffff" height="68" stroke="#ffffff" stroke-width="1" width="110" x="206" y="750"/>
<rect fill="none" height="68" stroke="#000000" stroke-width="1" width="110" x="206" y="750"/>
<text font-family="Lucida Grande" font-size="13" x="231" y="784">
DateTime</text>
<text font-family="Lucida Grande" font-size="13" x="214" y="765">
&lt;&lt;datatype&gt;&gt;</text>
<rect fill="#000000" height="1" stroke="#000000" stroke-width="1" width="110" x="206" y="794"/>
</svg>
