<?xml version="1.0" encoding="utf-8" ?>
<!DOCTYPE svg PUBLIC "-//W3C//DTD SVG 1.1//EN" "http://www.w3.org/Graphics/SVG/1.1/DTD/svg11.dtd">
<svg height="753" version="1.1" width="909" xmlns="http://www.w3.org/2000/svg">
<rect fill="#ffffff" height="271" stroke="#ffffff" stroke-width="1" width="225" x="318" y="254"/>
<rect fill="none" height="271" stroke="#000000" stroke-width="1" width="225" x="318" y="254"/>
<text font-family="Dialog" font-size="13" x="415" y="268">
User</text>
<rect fill="#000000" height="1" stroke="#000000" stroke-width="1" width="225" x="318" y="279"/>
<text font-family="Dialog" font-size="13" x="322" y="294">
firstName : String</text>
<text font-family="Dialog" font-size="13" x="322" y="312">
email : String</text>
<text font-family="Dialog" font-size="13" x="322" y="330">
password : String</text>
<text font-family="Dialog" font-size="13" x="322" y="348">
dob : Date</text>
<text font-family="Dialog" font-size="13" x="322" y="366">
phoneNumber : Integer</text>
<text font-family="Dialog" font-size="13" x="322" y="384">
lastName : String</text>
<text font-family="Dialog" font-size="13" x="322" y="402">
place : String</text>
<text font-family="Dialog" font-size="13" x="322" y="420">
currentProfilePic : Photo</text>
<text font-family="Dialog" font-size="13" x="322" y="438">
currentCoverPic : Photo</text>
<text font-family="Dialog" font-size="13" x="322" y="456">
secretQuestion : String</text>
<text font-family="Dialog" font-size="13" x="322" y="474">
secretAnswer : String</text>
<text font-family="Dialog" font-size="13" x="322" y="492">
created : TimeStamp</text>
<rect fill="#000000" height="1" stroke="#000000" stroke-width="1" width="225" x="318" y="503"/>
<rect fill="#ffffff" height="127" stroke="#ffffff" stroke-width="1" width="150" x="654" y="446"/>
<rect fill="none" height="127" stroke="#000000" stroke-width="1" width="150" x="654" y="446"/>
<text font-family="Dialog" font-size="13" x="697" y="460">
Comment</text>
<rect fill="#000000" height="1" stroke="#000000" stroke-width="1" width="150" x="654" y="471"/>
<text font-family="Dialog" font-size="13" x="658" y="486">
text : String</text>
<text font-family="Dialog" font-size="13" x="658" y="504">
created : TimeStamp</text>
<text font-family="Dialog" font-size="13" x="658" y="522">
updated : TimeStamp</text>
<text font-family="Dialog" font-size="13" x="658" y="540">
like_count : Integer</text>
<rect fill="#000000" height="1" stroke="#000000" stroke-width="1" width="150" x="654" y="551"/>
<rect fill="#ffffff" height="68" stroke="#ffffff" stroke-width="1" width="110" x="246" y="14"/>
<rect fill="none" height="68" stroke="#000000" stroke-width="1" width="110" x="246" y="14"/>
<text font-family="Dialog" font-size="13" x="282" y="49">
Photo</text>
<text font-family="Dialog" font-size="13" x="250" y="29">
&lt;&lt;datatype&gt;&gt;</text>
<rect fill="#000000" height="1" stroke="#000000" stroke-width="1" width="110" x="246" y="60"/>
<rect fill="#ffffff" height="127" stroke="#ffffff" stroke-width="1" width="132" x="662" y="134"/>
<rect fill="none" height="127" stroke="#000000" stroke-width="1" width="132" x="662" y="134"/>
<text font-family="Dialog" font-size="13" x="710" y="148">
Event</text>
<rect fill="#000000" height="1" stroke="#000000" stroke-width="1" width="132" x="662" y="159"/>
<text font-family="Dialog" font-size="13" x="666" y="174">
title : String</text>
<text font-family="Dialog" font-size="13" x="666" y="192">
description : String</text>
<text font-family="Dialog" font-size="13" x="666" y="210">
time : TimeStamp</text>
<text font-family="Dialog" font-size="13" x="666" y="228">
place : String</text>
<rect fill="#000000" height="1" stroke="#000000" stroke-width="1" width="132" x="662" y="239"/>
<polyline fill="none" points="670,390 542,390" stroke="#000000" stroke-width="1"/>
<line fill="#000000" stroke="#000000" stroke-width="1" x1="554" x2="542" y1="383" y2="390"/>
<line fill="#000000" stroke="#000000" stroke-width="1" x1="554" x2="542" y1="397" y2="390"/>
<text font-family="Dialog" font-size="13" x="570" y="383">
Liked</text>
<text font-family="Dialog" font-size="13" x="652" y="405">
0..*</text>
<text font-family="Dialog" font-size="13" x="543" y="405">
0..*</text>
<polyline fill="none" points="654,454 542,454" stroke="#000000" stroke-width="1"/>
<line fill="#000000" stroke="#000000" stroke-width="1" x1="554" x2="542" y1="447" y2="454"/>
<line fill="#000000" stroke="#000000" stroke-width="1" x1="554" x2="542" y1="461" y2="454"/>
<text font-family="Dialog" font-size="13" x="582" y="448">
Liked</text>
<text font-family="Dialog" font-size="13" x="626" y="448">
0..*</text>
<text font-family="Dialog" font-size="13" x="555" y="448">
0..*</text>
<polyline fill="none" points="542,524 654,524" stroke="#000000" stroke-width="1"/>
<text font-family="Dialog" font-size="13" x="555" y="518">
Comments</text>
<text font-family="Dialog" font-size="13" x="551" y="542">
1</text>
<text font-family="Dialog" font-size="13" x="626" y="541">
0..*</text>
<rect fill="#ffffff" height="73" stroke="#ffffff" stroke-width="1" width="129" x="382" y="14"/>
<rect fill="none" height="73" stroke="#000000" stroke-width="1" width="129" x="382" y="14"/>
<text font-family="Dialog" font-size="13" x="387" y="49">
REQUEST_STATUS</text>
<text font-family="Dialog" font-size="13" x="396" y="29">
&lt;&lt;datatype&gt;&gt;</text>
<rect fill="#000000" height="1" stroke="#000000" stroke-width="1" width="129" x="382" y="60"/>
<rect fill="#ffffff" height="68" stroke="#ffffff" stroke-width="1" width="169" x="46" y="14"/>
<rect fill="none" height="68" stroke="#000000" stroke-width="1" width="169" x="46" y="14"/>
<text font-family="Dialog" font-size="13" x="53" y="49">
CONFIRMATION_STATUS</text>
<text font-family="Dialog" font-size="13" x="80" y="29">
&lt;&lt;datatype&gt;&gt;</text>
<rect fill="#000000" height="1" stroke="#000000" stroke-width="1" width="169" x="46" y="60"/>
<rect fill="#ffffff" height="127" stroke="#ffffff" stroke-width="1" width="121" x="30" y="358"/>
<rect fill="none" height="127" stroke="#000000" stroke-width="1" width="121" x="30" y="358"/>
<text font-family="Dialog" font-size="13" x="50" y="372">
Organization</text>
<rect fill="#000000" height="1" stroke="#000000" stroke-width="1" width="121" x="30" y="383"/>
<text font-family="Dialog" font-size="13" x="34" y="398">
name : String</text>
<text font-family="Dialog" font-size="13" x="34" y="416">
from : Date</text>
<text font-family="Dialog" font-size="13" x="34" y="434">
to : Date</text>
<text font-family="Dialog" font-size="13" x="34" y="452">
position : String</text>
<rect fill="#000000" height="1" stroke="#000000" stroke-width="1" width="121" x="30" y="463"/>
<rect fill="#ffffff" height="145" stroke="#ffffff" stroke-width="1" width="165" x="22" y="494"/>
<rect fill="none" height="145" stroke="#000000" stroke-width="1" width="165" x="22" y="494"/>
<text font-family="Dialog" font-size="13" x="78" y="508">
Institute</text>
<rect fill="#000000" height="1" stroke="#000000" stroke-width="1" width="165" x="22" y="519"/>
<text font-family="Dialog" font-size="13" x="26" y="534">
name : String</text>
<text font-family="Dialog" font-size="13" x="26" y="552">
from : Date</text>
<text font-family="Dialog" font-size="13" x="26" y="570">
to : Date</text>
<text font-family="Dialog" font-size="13" x="26" y="588">
hasGraduated : Boolean</text>
<text font-family="Dialog" font-size="13" x="26" y="606">
description : String</text>
<rect fill="#000000" height="1" stroke="#000000" stroke-width="1" width="165" x="22" y="617"/>
<polyline fill="none" points="318,270 286,270 286,302 318,302" stroke="#000000" stroke-width="1"/>
<text font-family="Dialog" font-size="13" x="282" y="264">
0..*</text>
<text font-family="Dialog" font-size="13" x="292" y="322">
0..*</text>
<ellipse cx="288" cy="286" fill="#000000" rx="0.5" ry="0.5" stroke="#000000" stroke-width="1"/>
<ellipse cx="289" cy="287" fill="#ffffff" rx="-0.5" ry="-0.5" stroke="#ffffff" stroke-width="1"/>
<rect fill="#ffffff" height="127" stroke="#ffffff" stroke-width="1" width="252" x="14" y="230"/>
<rect fill="none" height="127" stroke="#000000" stroke-width="1" width="252" x="14" y="230"/>
<text font-family="Dialog" font-size="13" x="103" y="244">
FriendsWith</text>
<rect fill="#000000" height="1" stroke="#000000" stroke-width="1" width="252" x="14" y="255"/>
<text font-family="Dialog" font-size="13" x="18" y="270">
requestStatus : REQUEST_STATUS</text>
<text font-family="Dialog" font-size="13" x="18" y="288">
blockedStatus : Boolean</text>
<text font-family="Dialog" font-size="13" x="18" y="306">
friend_request_sent : TimeStamp</text>
<text font-family="Dialog" font-size="13" x="18" y="324">
friend_request_accepted : TimeStamp</text>
<rect fill="#000000" height="1" stroke="#000000" stroke-width="1" width="252" x="14" y="335"/>
<line fill="#000000" stroke="#000000" stroke-width="1" x1="288" x2="283" y1="286" y2="286"/>
<line fill="#000000" stroke="#000000" stroke-width="1" x1="278" x2="273" y1="286" y2="286"/>
<line fill="#000000" stroke="#000000" stroke-width="1" x1="268" x2="265" y1="286" y2="286"/>
<polyline fill="none" points="334,254 334,214 390,214 390,254" stroke="#000000" stroke-width="1"/>
<text font-family="Dialog" font-size="13" x="305" y="247">
0..*</text>
<text font-family="Dialog" font-size="13" x="395" y="247">
0..*</text>
<ellipse cx="362" cy="212" fill="#000000" rx="0.5" ry="0.5" stroke="#000000" stroke-width="1"/>
<ellipse cx="363" cy="213" fill="#ffffff" rx="-0.5" ry="-0.5" stroke="#ffffff" stroke-width="1"/>
<rect fill="#ffffff" height="91" stroke="#ffffff" stroke-width="1" width="333" x="190" y="126"/>
<rect fill="none" height="91" stroke="#000000" stroke-width="1" width="333" x="190" y="126"/>
<text font-family="Dialog" font-size="13" x="327" y="140">
Invitation</text>
<rect fill="#000000" height="1" stroke="#000000" stroke-width="1" width="333" x="190" y="151"/>
<text font-family="Dialog" font-size="13" x="194" y="166">
eventAcceptanceStatus : CONFIRMATION_STATUS</text>
<text font-family="Dialog" font-size="13" x="194" y="184">
invitedOn : TimeStamp</text>
<rect fill="#000000" height="1" stroke="#000000" stroke-width="1" width="333" x="190" y="195"/>
<line fill="#000000" stroke="#000000" stroke-width="1" x1="362" x2="362" y1="212" y2="216"/>
<polyline fill="none" points="522,166 662,166" stroke="#000000" stroke-width="1"/>
<text font-family="Dialog" font-size="13" x="548" y="183">
invitationOf</text>
<text font-family="Dialog" font-size="13" x="535" y="159">
1</text>
<text font-family="Dialog" font-size="13" x="641" y="159">
1</text>
<polyline fill="none" points="542,358 590,358 590,302 542,302" stroke="#000000" stroke-width="1"/>
<text font-family="Dialog" font-size="13" x="540" y="374">
0..*</text>
<text font-family="Dialog" font-size="13" x="592" y="356">
posts</text>
<text font-family="Dialog" font-size="13" x="537" y="317">
0..*</text>
<text font-family="Dialog" font-size="13" x="592" y="301">
recievesPost</text>
<ellipse cx="588" cy="330" fill="#000000" rx="0.5" ry="0.5" stroke="#000000" stroke-width="1"/>
<ellipse cx="589" cy="331" fill="#ffffff" rx="-0.5" ry="-0.5" stroke="#ffffff" stroke-width="1"/>
<rect fill="#ffffff" height="145" stroke="#ffffff" stroke-width="1" width="164" x="670" y="270"/>
<rect fill="none" height="145" stroke="#000000" stroke-width="1" width="164" x="670" y="270"/>
<text font-family="Dialog" font-size="13" x="738" y="284">
Post</text>
<rect fill="#000000" height="1" stroke="#000000" stroke-width="1" width="164" x="670" y="295"/>
<text font-family="Dialog" font-size="13" x="674" y="310">
text : String</text>
<text font-family="Dialog" font-size="13" x="674" y="328">
updated : TimeStamp</text>
<text font-family="Dialog" font-size="13" x="674" y="346">
type : POST_TYPE</text>
<text font-family="Dialog" font-size="13" x="674" y="364">
created : TimeStamp</text>
<text font-family="Dialog" font-size="13" x="674" y="382">
like_count : Integer</text>
<rect fill="#000000" height="1" stroke="#000000" stroke-width="1" width="164" x="670" y="393"/>
<line fill="#000000" stroke="#000000" stroke-width="1" x1="588" x2="593" y1="330" y2="330"/>
<line fill="#000000" stroke="#000000" stroke-width="1" x1="598" x2="603" y1="330" y2="330"/>
<line fill="#000000" stroke="#000000" stroke-width="1" x1="608" x2="613" y1="330" y2="330"/>
<line fill="#000000" stroke="#000000" stroke-width="1" x1="618" x2="623" y1="330" y2="330"/>
<line fill="#000000" stroke="#000000" stroke-width="1" x1="628" x2="633" y1="330" y2="330"/>
<line fill="#000000" stroke="#000000" stroke-width="1" x1="638" x2="643" y1="330" y2="330"/>
<line fill="#000000" stroke="#000000" stroke-width="1" x1="648" x2="653" y1="330" y2="330"/>
<line fill="#000000" stroke="#000000" stroke-width="1" x1="658" x2="663" y1="330" y2="330"/>
<line fill="#000000" stroke="#000000" stroke-width="1" x1="668" x2="670" y1="330" y2="330"/>
<polyline fill="none" points="803,414 803,446" stroke="#000000" stroke-width="1"/>
<polygon fill="#000000" points="803,414 808,424 803,434 798,424" stroke="#000000" stroke-width="1"/>
<polygon fill="none" points="803,414 808,424 803,434 798,424" stroke="#000000" stroke-width="1"/>
<text font-family="Dialog" font-size="13" x="806" y="432">
consistsOf</text>
<text font-family="Dialog" font-size="13" x="782" y="429">
1</text>
<text font-family="Dialog" font-size="13" x="773" y="438">
0..*</text>
<rect fill="#ffffff" height="68" stroke="#ffffff" stroke-width="1" width="110" x="534" y="14"/>
<rect fill="none" height="68" stroke="#000000" stroke-width="1" width="110" x="534" y="14"/>
<text font-family="Dialog" font-size="13" x="553" y="49">
POST_TYPE</text>
<text font-family="Dialog" font-size="13" x="538" y="29">
&lt;&lt;datatype&gt;&gt;</text>
<rect fill="#000000" height="1" stroke="#000000" stroke-width="1" width="110" x="534" y="60"/>
<rect fill="#ffffff" height="68" stroke="#ffffff" stroke-width="1" width="110" x="670" y="14"/>
<rect fill="none" height="68" stroke="#000000" stroke-width="1" width="110" x="670" y="14"/>
<text font-family="Dialog" font-size="13" x="688" y="49">
TimeStamp</text>
<text font-family="Dialog" font-size="13" x="674" y="29">
&lt;&lt;datatype&gt;&gt;</text>
<rect fill="#000000" height="1" stroke="#000000" stroke-width="1" width="110" x="670" y="60"/>
<rect fill="#ffffff" height="73" stroke="#ffffff" stroke-width="1" width="156" x="222" y="646"/>
<rect fill="none" height="73" stroke="#000000" stroke-width="1" width="156" x="222" y="646"/>
<text font-family="Dialog" font-size="13" x="258" y="660">
Conversation</text>
<rect fill="#000000" height="1" stroke="#000000" stroke-width="1" width="156" x="222" y="671"/>
<rect fill="#000000" height="1" stroke="#000000" stroke-width="1" width="156" x="222" y="697"/>
<rect fill="#ffffff" height="109" stroke="#ffffff" stroke-width="1" width="149" x="462" y="630"/>
<rect fill="none" height="109" stroke="#000000" stroke-width="1" width="149" x="462" y="630"/>
<text font-family="Dialog" font-size="13" x="508" y="644">
Message</text>
<rect fill="#000000" height="1" stroke="#000000" stroke-width="1" width="149" x="462" y="655"/>
<text font-family="Dialog" font-size="13" x="466" y="670">
text : String</text>
<text font-family="Dialog" font-size="13" x="466" y="688">
read_status : Boolean</text>
<text font-family="Dialog" font-size="13" x="466" y="706">
sent_at : Timestamp</text>
<rect fill="#000000" height="1" stroke="#000000" stroke-width="1" width="149" x="462" y="717"/>
<polyline fill="none" points="377,670 462,670" stroke="#000000" stroke-width="1"/>
<polygon fill="#000000" points="377,670 387,665 397,670 387,675" stroke="#000000" stroke-width="1"/>
<polygon fill="none" points="377,670 387,665 397,670 387,675" stroke="#000000" stroke-width="1"/>
<line fill="#000000" stroke="#000000" stroke-width="1" x1="450" x2="462" y1="677" y2="670"/>
<line fill="#000000" stroke="#000000" stroke-width="1" x1="450" x2="462" y1="663" y2="670"/>
<text font-family="Dialog" font-size="13" x="417" y="664">
has</text>
<text font-family="Dialog" font-size="13" x="389" y="686">
1</text>
<text font-family="Dialog" font-size="13" x="439" y="686">
1..*</text>
<polyline fill="none" points="318,518 186,518" stroke="#000000" stroke-width="1"/>
<polygon fill="#000000" points="318,518 308,523 298,518 308,513" stroke="#000000" stroke-width="1"/>
<polygon fill="none" points="318,518 308,523 298,518 308,513" stroke="#000000" stroke-width="1"/>
<line fill="#000000" stroke="#000000" stroke-width="1" x1="198" x2="186" y1="511" y2="518"/>
<line fill="#000000" stroke="#000000" stroke-width="1" x1="198" x2="186" y1="525" y2="518"/>
<text font-family="Dialog" font-size="13" x="210" y="534">
studiedAt</text>
<text font-family="Dialog" font-size="13" x="297" y="511">
1</text>
<text font-family="Dialog" font-size="13" x="191" y="511">
0..*</text>
<polyline fill="none" points="318,414 150,414" stroke="#000000" stroke-width="1"/>
<polygon fill="#000000" points="318,414 308,419 298,414 308,409" stroke="#000000" stroke-width="1"/>
<polygon fill="none" points="318,414 308,419 298,414 308,409" stroke="#000000" stroke-width="1"/>
<line fill="#000000" stroke="#000000" stroke-width="1" x1="162" x2="150" y1="407" y2="414"/>
<line fill="#000000" stroke="#000000" stroke-width="1" x1="162" x2="150" y1="421" y2="414"/>
<text font-family="Dialog" font-size="13" x="196" y="430">
worksFor</text>
<text font-family="Dialog" font-size="13" x="297" y="407">
1</text>
<text font-family="Dialog" font-size="13" x="155" y="407">
0..*</text>
<polyline fill="none" points="542,254 662,254" stroke="#000000" stroke-width="1"/>
<polygon fill="#000000" points="542,254 552,249 562,254 552,259" stroke="#000000" stroke-width="1"/>
<polygon fill="none" points="542,254 552,249 562,254 552,259" stroke="#000000" stroke-width="1"/>
<line fill="#000000" stroke="#000000" stroke-width="1" x1="650" x2="662" y1="261" y2="254"/>
<line fill="#000000" stroke="#000000" stroke-width="1" x1="650" x2="662" y1="247" y2="254"/>
<text font-family="Dialog" font-size="13" x="566" y="269">
creates</text>
<text font-family="Dialog" font-size="13" x="555" y="247">
1</text>
<text font-family="Dialog" font-size="13" x="633" y="247">
0..*</text>
<polyline fill="none" points="542,524 542,630" stroke="#000000" stroke-width="1"/>
<polygon fill="#000000" points="542,524 547,534 542,544 537,534" stroke="#000000" stroke-width="1"/>
<polygon fill="none" points="542,524 547,534 542,544 537,534" stroke="#000000" stroke-width="1"/>
<line fill="#000000" stroke="#000000" stroke-width="1" x1="535" x2="542" y1="618" y2="630"/>
<line fill="#000000" stroke="#000000" stroke-width="1" x1="549" x2="542" y1="618" y2="630"/>
<text font-family="Dialog" font-size="13" x="544" y="585">
sends</text>
<text font-family="Dialog" font-size="13" x="521" y="541">
1</text>
<text font-family="Dialog" font-size="13" x="513" y="619">
0..*</text>
<polyline fill="none" points="334,524 334,646" stroke="#000000" stroke-width="1"/>
<text font-family="Dialog" font-size="13" x="244" y="586">
participates</text>
<text font-family="Dialog" font-size="13" x="303" y="541">
2...*</text>
<text font-family="Dialog" font-size="13" x="304" y="639">
0..*</text>
<polyline fill="none" points="478,524 478,630" stroke="#000000" stroke-width="1"/>
<polygon fill="#000000" points="478,524 483,534 478,544 473,534" stroke="#000000" stroke-width="1"/>
<polygon fill="none" points="478,524 483,534 478,544 473,534" stroke="#000000" stroke-width="1"/>
<line fill="#000000" stroke="#000000" stroke-width="1" x1="471" x2="478" y1="618" y2="630"/>
<line fill="#000000" stroke="#000000" stroke-width="1" x1="485" x2="478" y1="618" y2="630"/>
<text font-family="Dialog" font-size="13" x="481" y="576">
owns</text>
<text font-family="Dialog" font-size="13" x="457" y="541">
1</text>
<text font-family="Dialog" font-size="13" x="448" y="617">
0..*</text>
</svg>
